<?xml version="1.0" encoding="utf-8"?>
<!-- Generator: Adobe Illustrator 17.1.0, SVG Export Plug-In . SVG Version: 6.00 Build 0)  -->
<!DOCTYPE svg PUBLIC "-//W3C//DTD SVG 1.1//EN" "http://www.w3.org/Graphics/SVG/1.1/DTD/svg11.dtd">
<svg version="1.1" id="Layer_1" xmlns="http://www.w3.org/2000/svg" xmlns:xlink="http://www.w3.org/1999/xlink" x="0px" y="0px"
	 viewBox="55.6 35.5 331.2 237.3" enable-background="new 55.6 35.5 331.2 237.3" xml:space="preserve">
<g>
	<g>
		<defs>
			<rect id="SVGID_1_" x="113" y="59" width="270.7" height="155.5"/>
		</defs>
		<clipPath id="SVGID_2_">
			<use xlink:href="#SVGID_1_"  overflow="visible"/>
		</clipPath>
		<path clip-path="url(#SVGID_2_)" d="M135.8,68.5h-0.4c0-1.3-1.1-2.4-2.4-2.4s-2.4,1.1-2.4,2.4s1.1,2.4,2.4,2.4s2.4-1.1,2.4-2.4
			H135.8h0.4c0,1.7-1.4,3.1-3.1,3.1s-3.1-1.4-3.1-3.1s1.4-3.1,3.1-3.1s3.1,1.4,3.1,3.1H135.8z M130.8,68.5h-0.4
			c0-1.3-1.1-2.4-2.4-2.4s-2.4,1.1-2.4,2.4s1.1,2.4,2.4,2.4s2.4-1.1,2.4-2.4H130.8h0.4c0,1.7-1.4,3.1-3.1,3.1s-3.1-1.4-3.1-3.1
			s1.4-3.1,3.1-3.1s3.1,1.4,3.1,3.1H130.8z M125.8,68.5h-0.4c0-1.3-1.1-2.4-2.4-2.4s-2.4,1.1-2.4,2.4s1.1,2.4,2.4,2.4
			s2.4-1.1,2.4-2.4H125.8h0.4c0,1.7-1.4,3.1-3.1,3.1s-3.1-1.4-3.1-3.1s1.4-3.1,3.1-3.1s3.1,1.4,3.1,3.1H125.8z"/>
	</g>
	<g>
		<defs>
			<rect id="SVGID_3_" x="113" y="59" width="270.7" height="155.5"/>
		</defs>
		<clipPath id="SVGID_4_">
			<use xlink:href="#SVGID_3_"  overflow="visible"/>
		</clipPath>
		<path clip-path="url(#SVGID_4_)" d="M140.8,79.6h-0.4c0-1.3-1.1-2.4-2.4-2.4s-2.4,1.1-2.4,2.4s1.1,2.4,2.4,2.4s2.4-1.1,2.4-2.4
			H140.8h0.4c0,1.7-1.4,3.1-3.1,3.1s-3.1-1.4-3.1-3.1s1.4-3.1,3.1-3.1s3.1,1.4,3.1,3.1H140.8z"/>
	</g>
	<g>
		<defs>
			<rect id="SVGID_5_" x="113" y="59" width="270.7" height="155.5"/>
		</defs>
		<clipPath id="SVGID_6_">
			<use xlink:href="#SVGID_5_"  overflow="visible"/>
		</clipPath>
		<path clip-path="url(#SVGID_6_)" d="M145.9,72.2h-0.4c0-1.3-1.1-2.4-2.4-2.4s-2.4,1.1-2.4,2.4s1.1,2.4,2.4,2.4s2.4-1.1,2.4-2.4
			H145.9h0.4c0,1.7-1.4,3.1-3.1,3.1s-3.1-1.4-3.1-3.1s1.4-3.1,3.1-3.1s3.1,1.4,3.1,3.1H145.9z"/>
	</g>
	<g>
		<defs>
			<rect id="SVGID_7_" x="113" y="59" width="270.7" height="155.5"/>
		</defs>
		<clipPath id="SVGID_8_">
			<use xlink:href="#SVGID_7_"  overflow="visible"/>
		</clipPath>
		<path clip-path="url(#SVGID_8_)" d="M150.9,68.5h-0.4c0-1.3-1.1-2.4-2.4-2.4s-2.4,1.1-2.4,2.4s1.1,2.4,2.4,2.4s2.4-1.1,2.4-2.4
			H150.9h0.4c0,1.7-1.4,3.1-3.1,3.1s-3.1-1.4-3.1-3.1s1.4-3.1,3.1-3.1s3.1,1.4,3.1,3.1H150.9z"/>
	</g>
	<g>
		<defs>
			<rect id="SVGID_9_" x="113" y="59" width="270.7" height="155.5"/>
		</defs>
		<clipPath id="SVGID_10_">
			<use xlink:href="#SVGID_9_"  overflow="visible"/>
		</clipPath>
		<path clip-path="url(#SVGID_10_)" d="M155.9,87h-0.4c0-1.3-1.1-2.4-2.4-2.4s-2.4,1.1-2.4,2.4s1.1,2.4,2.4,2.4s2.4-1.1,2.4-2.4
			H155.9h0.4c0,1.7-1.4,3.1-3.1,3.1s-3.1-1.4-3.1-3.1s1.4-3.1,3.1-3.1s3.1,1.4,3.1,3.1H155.9z"/>
	</g>
	<g>
		<defs>
			<rect id="SVGID_11_" x="113" y="59" width="270.7" height="155.5"/>
		</defs>
		<clipPath id="SVGID_12_">
			<use xlink:href="#SVGID_11_"  overflow="visible"/>
		</clipPath>
		<path clip-path="url(#SVGID_12_)" d="M160.9,79.6h-0.4c0-1.3-1.1-2.4-2.4-2.4s-2.4,1.1-2.4,2.4s1.1,2.4,2.4,2.4s2.4-1.1,2.4-2.4
			H160.9h0.4c0,1.7-1.4,3.1-3.1,3.1s-3.1-1.4-3.1-3.1s1.4-3.1,3.1-3.1s3.1,1.4,3.1,3.1H160.9z"/>
	</g>
	<g>
		<defs>
			<rect id="SVGID_13_" x="113" y="59" width="270.7" height="155.5"/>
		</defs>
		<clipPath id="SVGID_14_">
			<use xlink:href="#SVGID_13_"  overflow="visible"/>
		</clipPath>
		<path clip-path="url(#SVGID_14_)" d="M181,75.9h-0.4c0-1.3-1.1-2.4-2.4-2.4s-2.4,1.1-2.4,2.4s1.1,2.4,2.4,2.4s2.4-1.1,2.4-2.4H181
			h0.4c0,1.7-1.4,3.1-3.1,3.1s-3.1-1.4-3.1-3.1s1.4-3.1,3.1-3.1s3.1,1.4,3.1,3.1H181z M175.9,75.9h-0.4c0-1.3-1.1-2.4-2.4-2.4
			s-2.4,1.1-2.4,2.4s1.1,2.4,2.4,2.4s2.4-1.1,2.4-2.4H175.9h0.4c0,1.7-1.4,3.1-3.1,3.1s-3.1-1.4-3.1-3.1s1.4-3.1,3.1-3.1
			s3.1,1.4,3.1,3.1H175.9z M170.9,75.9h-0.4c0-1.3-1.1-2.4-2.4-2.4s-2.4,1.1-2.4,2.4s1.1,2.4,2.4,2.4s2.4-1.1,2.4-2.4H170.9h0.4
			c0,1.7-1.4,3.1-3.1,3.1s-3.1-1.4-3.1-3.1s1.4-3.1,3.1-3.1s3.1,1.4,3.1,3.1H170.9z M165.9,75.9h-0.4c0-1.3-1.1-2.4-2.4-2.4
			s-2.4,1.1-2.4,2.4s1.1,2.4,2.4,2.4s2.4-1.1,2.4-2.4H165.9h0.4c0,1.7-1.4,3.1-3.1,3.1s-3.1-1.4-3.1-3.1s1.4-3.1,3.1-3.1
			s3.1,1.4,3.1,3.1H165.9z"/>
	</g>
	<g>
		<defs>
			<rect id="SVGID_15_" x="113" y="59" width="270.7" height="155.5"/>
		</defs>
		<clipPath id="SVGID_16_">
			<use xlink:href="#SVGID_15_"  overflow="visible"/>
		</clipPath>
		<path clip-path="url(#SVGID_16_)" d="M186,72.2h-0.4c0-1.3-1.1-2.4-2.4-2.4c-1.3,0-2.4,1.1-2.4,2.4s1.1,2.4,2.4,2.4
			s2.4-1.1,2.4-2.4H186h0.4c0,1.7-1.4,3.1-3.1,3.1c-1.7,0-3.1-1.4-3.1-3.1s1.4-3.1,3.1-3.1s3.1,1.4,3.1,3.1H186z"/>
	</g>
	<g>
		<defs>
			<rect id="SVGID_17_" x="113" y="59" width="270.7" height="155.5"/>
		</defs>
		<clipPath id="SVGID_18_">
			<use xlink:href="#SVGID_17_"  overflow="visible"/>
		</clipPath>
		<path clip-path="url(#SVGID_18_)" d="M191,68.6h-0.4c0-1.3-1.1-2.4-2.4-2.4c-1.3,0-2.4,1.1-2.4,2.4s1.1,2.4,2.4,2.4
			c1.3,0,2.4-1.1,2.4-2.4H191h0.4c0,1.7-1.4,3.1-3.1,3.1c-1.7,0-3.1-1.4-3.1-3.1s1.4-3.1,3.1-3.1c1.7,0,3.1,1.4,3.1,3.1H191z"/>
	</g>
	<g>
		<defs>
			<rect id="SVGID_19_" x="113" y="59" width="270.7" height="155.5"/>
		</defs>
		<clipPath id="SVGID_20_">
			<use xlink:href="#SVGID_19_"  overflow="visible"/>
		</clipPath>
		<path clip-path="url(#SVGID_20_)" d="M196,72.2h-0.4c0-1.3-1.1-2.4-2.4-2.4c-1.3,0-2.4,1.1-2.4,2.4s1.1,2.4,2.4,2.4
			c1.3,0,2.4-1.1,2.4-2.4H196h0.4c0,1.7-1.4,3.1-3.1,3.1c-1.7,0-3.1-1.4-3.1-3.1s1.4-3.1,3.1-3.1c1.7,0,3.1,1.4,3.1,3.1H196z"/>
	</g>
	<g>
		<defs>
			<rect id="SVGID_21_" x="113" y="59" width="270.7" height="155.5"/>
		</defs>
		<clipPath id="SVGID_22_">
			<use xlink:href="#SVGID_21_"  overflow="visible"/>
		</clipPath>
		<path clip-path="url(#SVGID_22_)" d="M201,68.6h-0.4c0-1.3-1.1-2.4-2.4-2.4c-1.3,0-2.4,1.1-2.4,2.4s1.1,2.4,2.4,2.4
			c1.3,0,2.4-1.1,2.4-2.4H201h0.4c0,1.7-1.4,3.1-3.1,3.1c-1.7,0-3.1-1.4-3.1-3.1s1.4-3.1,3.1-3.1c1.7,0,3.1,1.4,3.1,3.1H201z"/>
	</g>
	<g>
		<defs>
			<rect id="SVGID_23_" x="113" y="59" width="270.7" height="155.5"/>
		</defs>
		<clipPath id="SVGID_24_">
			<use xlink:href="#SVGID_23_"  overflow="visible"/>
		</clipPath>
		<path clip-path="url(#SVGID_24_)" d="M206,64.9h-0.4c0-1.3-1.1-2.4-2.4-2.4c-1.3,0-2.4,1.1-2.4,2.4s1.1,2.4,2.4,2.4
			c1.3,0,2.4-1.1,2.4-2.4H206h0.4c0,1.7-1.4,3.1-3.1,3.1c-1.7,0-3.1-1.4-3.1-3.1c0-1.7,1.4-3.1,3.1-3.1c1.7,0,3.1,1.4,3.1,3.1H206z"
			/>
	</g>
	<g>
		<defs>
			<rect id="SVGID_25_" x="113" y="59" width="270.7" height="155.5"/>
		</defs>
		<clipPath id="SVGID_26_">
			<use xlink:href="#SVGID_25_"  overflow="visible"/>
		</clipPath>
		<path clip-path="url(#SVGID_26_)" d="M211,149.8h-0.4c0-1.3-1.1-2.4-2.4-2.4c-1.3,0-2.4,1.1-2.4,2.4c0,1.3,1.1,2.4,2.4,2.4
			c1.3,0,2.4-1.1,2.4-2.4H211h0.4c0,1.7-1.4,3.1-3.1,3.1c-1.7,0-3.1-1.4-3.1-3.1c0-1.7,1.4-3.1,3.1-3.1c1.7,0,3.1,1.4,3.1,3.1H211z"
			/>
	</g>
	<g>
		<defs>
			<rect id="SVGID_27_" x="113" y="59" width="270.7" height="155.5"/>
		</defs>
		<clipPath id="SVGID_28_">
			<use xlink:href="#SVGID_27_"  overflow="visible"/>
		</clipPath>
		<path clip-path="url(#SVGID_28_)" d="M216.1,157.2h-0.4c0-1.3-1.1-2.4-2.4-2.4c-1.3,0-2.4,1.1-2.4,2.4c0,1.3,1.1,2.4,2.4,2.4
			c1.3,0,2.4-1.1,2.4-2.4H216.1h0.4c0,1.7-1.4,3.1-3.1,3.1c-1.7,0-3.1-1.4-3.1-3.1c0-1.7,1.4-3.1,3.1-3.1c1.7,0,3.1,1.4,3.1,3.1
			H216.1"/>
	</g>
	<g>
		<defs>
			<rect id="SVGID_29_" x="113" y="59" width="270.7" height="155.5"/>
		</defs>
		<clipPath id="SVGID_30_">
			<use xlink:href="#SVGID_29_"  overflow="visible"/>
		</clipPath>
		<path clip-path="url(#SVGID_30_)" d="M231.1,153.5h-0.4c0-1.3-1.1-2.4-2.4-2.4c-1.3,0-2.4,1.1-2.4,2.4c0,1.3,1.1,2.4,2.4,2.4
			c1.3,0,2.4-1.1,2.4-2.4H231.1h0.4c0,1.7-1.4,3.1-3.1,3.1c-1.7,0-3.1-1.4-3.1-3.1c0-1.7,1.4-3.1,3.1-3.1c1.7,0,3.1,1.4,3.1,3.1
			H231.1 M226.1,153.5h-0.4c0-1.3-1.1-2.4-2.4-2.4c-1.3,0-2.4,1.1-2.4,2.4c0,1.3,1.1,2.4,2.4,2.4c1.3,0,2.4-1.1,2.4-2.4H226.1h0.4
			c0,1.7-1.4,3.1-3.1,3.1c-1.7,0-3.1-1.4-3.1-3.1c0-1.7,1.4-3.1,3.1-3.1c1.7,0,3.1,1.4,3.1,3.1H226.1 M221.1,153.5h-0.4
			c0-1.3-1.1-2.4-2.4-2.4c-1.3,0-2.4,1.1-2.4,2.4c0,1.3,1.1,2.4,2.4,2.4c1.3,0,2.4-1.1,2.4-2.4H221.1h0.4c0,1.7-1.4,3.1-3.1,3.1
			c-1.7,0-3.1-1.4-3.1-3.1c0-1.7,1.4-3.1,3.1-3.1c1.7,0,3.1,1.4,3.1,3.1H221.1"/>
	</g>
	<g>
		<defs>
			<rect id="SVGID_31_" x="113" y="59" width="270.7" height="155.5"/>
		</defs>
		<clipPath id="SVGID_32_">
			<use xlink:href="#SVGID_31_"  overflow="visible"/>
		</clipPath>
		<path clip-path="url(#SVGID_32_)" d="M236.1,205.2h-0.4c0-1.3-1.1-2.4-2.4-2.4c-1.3,0-2.4,1.1-2.4,2.4c0,1.3,1.1,2.4,2.4,2.4
			c1.3,0,2.4-1.1,2.4-2.4H236.1h0.4c0,1.7-1.4,3.1-3.1,3.1c-1.7,0-3.1-1.4-3.1-3.1c0-1.7,1.4-3.1,3.1-3.1c1.7,0,3.1,1.4,3.1,3.1
			H236.1z"/>
	</g>
	<g>
		<defs>
			<rect id="SVGID_33_" x="113" y="59" width="270.7" height="155.5"/>
		</defs>
		<clipPath id="SVGID_34_">
			<use xlink:href="#SVGID_33_"  overflow="visible"/>
		</clipPath>
		<path clip-path="url(#SVGID_34_)" d="M251.2,208.9h-0.4c0-1.3-1.1-2.4-2.4-2.4c-1.3,0-2.4,1.1-2.4,2.4c0,1.3,1.1,2.4,2.4,2.4
			c1.3,0,2.4-1.1,2.4-2.4H251.2h0.4c0,1.7-1.4,3.1-3.1,3.1c-1.7,0-3.1-1.4-3.1-3.1s1.4-3.1,3.1-3.1c1.7,0,3.1,1.4,3.1,3.1H251.2z
			 M246.1,208.9h-0.4c0-1.3-1.1-2.4-2.4-2.4c-1.3,0-2.4,1.1-2.4,2.4c0,1.3,1.1,2.4,2.4,2.4c1.3,0,2.4-1.1,2.4-2.4H246.1h0.4
			c0,1.7-1.4,3.1-3.1,3.1c-1.7,0-3.1-1.4-3.1-3.1c0-1.7,1.4-3.1,3.1-3.1c1.7,0,3.1,1.4,3.1,3.1H246.1z M241.1,208.9h-0.4
			c0-1.3-1.1-2.4-2.4-2.4c-1.3,0-2.4,1.1-2.4,2.4c0,1.3,1.1,2.4,2.4,2.4c1.3,0,2.4-1.1,2.4-2.4H241.1h0.4c0,1.7-1.4,3.1-3.1,3.1
			c-1.7,0-3.1-1.4-3.1-3.1c0-1.7,1.4-3.1,3.1-3.1c1.7,0,3.1,1.4,3.1,3.1H241.1z"/>
	</g>
	<g>
		<defs>
			<rect id="SVGID_35_" x="113" y="59" width="270.7" height="155.5"/>
		</defs>
		<clipPath id="SVGID_36_">
			<use xlink:href="#SVGID_35_"  overflow="visible"/>
		</clipPath>
		<path clip-path="url(#SVGID_36_)" d="M261.2,205.2h-0.4c0-1.3-1.1-2.4-2.4-2.4s-2.4,1.1-2.4,2.4c0,1.3,1.1,2.4,2.4,2.4
			c1.3,0,2.4-1.1,2.4-2.4H261.2h0.4c0,1.7-1.4,3.1-3.1,3.1c-1.7,0-3.1-1.4-3.1-3.1c0-1.7,1.4-3.1,3.1-3.1s3.1,1.4,3.1,3.1H261.2z
			 M256.2,205.2h-0.4c0-1.3-1.1-2.4-2.4-2.4c-1.3,0-2.4,1.1-2.4,2.4c0,1.3,1.1,2.4,2.4,2.4c1.3,0,2.4-1.1,2.4-2.4H256.2h0.4
			c0,1.7-1.4,3.1-3.1,3.1c-1.7,0-3.1-1.4-3.1-3.1c0-1.7,1.4-3.1,3.1-3.1c1.7,0,3.1,1.4,3.1,3.1H256.2z"/>
	</g>
	<g>
		<defs>
			<rect id="SVGID_37_" x="113" y="59" width="270.7" height="155.5"/>
		</defs>
		<clipPath id="SVGID_38_">
			<use xlink:href="#SVGID_37_"  overflow="visible"/>
		</clipPath>
		<path clip-path="url(#SVGID_38_)" d="M281.2,201.5h-0.4c0-1.3-1.1-2.4-2.4-2.4s-2.4,1.1-2.4,2.4c0,1.3,1.1,2.4,2.4,2.4
			c1.3,0,2.4-1.1,2.4-2.4H281.2h0.4c0,1.7-1.4,3.1-3.1,3.1c-1.7,0-3.1-1.4-3.1-3.1c0-1.7,1.4-3.1,3.1-3.1s3.1,1.4,3.1,3.1H281.2z
			 M276.2,201.5h-0.4c0-1.3-1.1-2.4-2.4-2.4s-2.4,1.1-2.4,2.4c0,1.3,1.1,2.4,2.4,2.4c1.3,0,2.4-1.1,2.4-2.4H276.2h0.4
			c0,1.7-1.4,3.1-3.1,3.1c-1.7,0-3.1-1.4-3.1-3.1c0-1.7,1.4-3.1,3.1-3.1s3.1,1.4,3.1,3.1H276.2z M271.2,201.5h-0.4
			c0-1.3-1.1-2.4-2.4-2.4s-2.4,1.1-2.4,2.4c0,1.3,1.1,2.4,2.4,2.4c1.3,0,2.4-1.1,2.4-2.4H271.2h0.4c0,1.7-1.4,3.1-3.1,3.1
			c-1.7,0-3.1-1.4-3.1-3.1c0-1.7,1.4-3.1,3.1-3.1s3.1,1.4,3.1,3.1H271.2z M266.2,201.5h-0.4c0-1.3-1.1-2.4-2.4-2.4s-2.4,1.1-2.4,2.4
			c0,1.3,1.1,2.4,2.4,2.4c1.3,0,2.4-1.1,2.4-2.4H266.2h0.4c0,1.7-1.4,3.1-3.1,3.1c-1.7,0-3.1-1.4-3.1-3.1c0-1.7,1.4-3.1,3.1-3.1
			s3.1,1.4,3.1,3.1H266.2z"/>
	</g>
	<g>
		<defs>
			<rect id="SVGID_39_" x="113" y="59" width="270.7" height="155.5"/>
		</defs>
		<clipPath id="SVGID_40_">
			<use xlink:href="#SVGID_39_"  overflow="visible"/>
		</clipPath>
		<path clip-path="url(#SVGID_40_)" d="M291.3,197.8h-0.4c0-1.3-1.1-2.4-2.4-2.4s-2.4,1.1-2.4,2.4c0,1.3,1.1,2.4,2.4,2.4
			c1.3,0,2.4-1.1,2.4-2.4H291.3h0.4c0,1.7-1.4,3.1-3.1,3.1c-1.7,0-3.1-1.4-3.1-3.1c0-1.7,1.4-3.1,3.1-3.1s3.1,1.4,3.1,3.1H291.3z
			 M286.2,197.8h-0.4c0-1.3-1.1-2.4-2.4-2.4s-2.4,1.1-2.4,2.4c0,1.3,1.1,2.4,2.4,2.4c1.3,0,2.4-1.1,2.4-2.4H286.2h0.4
			c0,1.7-1.4,3.1-3.1,3.1c-1.7,0-3.1-1.4-3.1-3.1c0-1.7,1.4-3.1,3.1-3.1s3.1,1.4,3.1,3.1H286.2z"/>
	</g>
	<g>
		<defs>
			<rect id="SVGID_41_" x="113" y="59" width="270.7" height="155.5"/>
		</defs>
		<clipPath id="SVGID_42_">
			<use xlink:href="#SVGID_41_"  overflow="visible"/>
		</clipPath>
		<path clip-path="url(#SVGID_42_)" d="M301.3,194.1h-0.4c0-1.3-1.1-2.4-2.4-2.4s-2.4,1.1-2.4,2.4c0,1.3,1.1,2.4,2.4,2.4
			c1.3,0,2.4-1.1,2.4-2.4H301.3h0.4c0,1.7-1.4,3.1-3.1,3.1c-1.7,0-3.1-1.4-3.1-3.1c0-1.7,1.4-3.1,3.1-3.1s3.1,1.4,3.1,3.1H301.3z
			 M296.3,194.1h-0.4c0-1.3-1.1-2.4-2.4-2.4s-2.4,1.1-2.4,2.4c0,1.3,1.1,2.4,2.4,2.4c1.3,0,2.4-1.1,2.4-2.4H296.3h0.4
			c0,1.7-1.4,3.1-3.1,3.1c-1.7,0-3.1-1.4-3.1-3.1c0-1.7,1.4-3.1,3.1-3.1s3.1,1.4,3.1,3.1H296.3z"/>
	</g>
	<g>
		<defs>
			<rect id="SVGID_43_" x="113" y="59" width="270.7" height="155.5"/>
		</defs>
		<clipPath id="SVGID_44_">
			<use xlink:href="#SVGID_43_"  overflow="visible"/>
		</clipPath>
		<path clip-path="url(#SVGID_44_)" d="M306.3,190.4h-0.4c0-1.3-1.1-2.4-2.4-2.4s-2.4,1.1-2.4,2.4c0,1.3,1.1,2.4,2.4,2.4
			c1.3,0,2.4-1.1,2.4-2.4H306.3h0.4c0,1.7-1.4,3.1-3.1,3.1c-1.7,0-3.1-1.4-3.1-3.1c0-1.7,1.4-3.1,3.1-3.1s3.1,1.4,3.1,3.1H306.3z"/>
	</g>
	<g>
		<defs>
			<rect id="SVGID_45_" x="113" y="59" width="270.7" height="155.5"/>
		</defs>
		<clipPath id="SVGID_46_">
			<use xlink:href="#SVGID_45_"  overflow="visible"/>
		</clipPath>
		<path clip-path="url(#SVGID_46_)" d="M311.3,186.7h-0.4c0-1.3-1.1-2.4-2.4-2.4c-1.3,0-2.4,1.1-2.4,2.4c0,1.3,1.1,2.4,2.4,2.4
			s2.4-1.1,2.4-2.4H311.3h0.4c0,1.7-1.4,3.1-3.1,3.1s-3.1-1.4-3.1-3.1c0-1.7,1.4-3.1,3.1-3.1s3.1,1.4,3.1,3.1H311.3z"/>
	</g>
	<g>
		<defs>
			<rect id="SVGID_47_" x="113" y="59" width="270.7" height="155.5"/>
		</defs>
		<clipPath id="SVGID_48_">
			<use xlink:href="#SVGID_47_"  overflow="visible"/>
		</clipPath>
		<path clip-path="url(#SVGID_48_)" d="M316.3,190.4H316c0-1.3-1.1-2.4-2.4-2.4s-2.4,1.1-2.4,2.4c0,1.3,1.1,2.4,2.4,2.4
			s2.4-1.1,2.4-2.4H316.3h0.4c0,1.7-1.4,3.1-3.1,3.1s-3.1-1.4-3.1-3.1c0-1.7,1.4-3.1,3.1-3.1s3.1,1.4,3.1,3.1H316.3z"/>
	</g>
	<g>
		<defs>
			<rect id="SVGID_49_" x="113" y="59" width="270.7" height="155.5"/>
		</defs>
		<clipPath id="SVGID_50_">
			<use xlink:href="#SVGID_49_"  overflow="visible"/>
		</clipPath>
		<path clip-path="url(#SVGID_50_)" d="M321.3,183H321c0-1.3-1.1-2.4-2.4-2.4s-2.4,1.1-2.4,2.4c0,1.3,1.1,2.4,2.4,2.4
			s2.4-1.1,2.4-2.4H321.3h0.4c0,1.7-1.4,3.1-3.1,3.1s-3.1-1.4-3.1-3.1c0-1.7,1.4-3.1,3.1-3.1s3.1,1.4,3.1,3.1H321.3z"/>
	</g>
	<g>
		<defs>
			<rect id="SVGID_51_" x="113" y="59" width="270.7" height="155.5"/>
		</defs>
		<clipPath id="SVGID_52_">
			<use xlink:href="#SVGID_51_"  overflow="visible"/>
		</clipPath>
		<path clip-path="url(#SVGID_52_)" d="M326.4,179.3H326c0-1.3-1.1-2.4-2.4-2.4s-2.4,1.1-2.4,2.4c0,1.3,1.1,2.4,2.4,2.4
			s2.4-1.1,2.4-2.4H326.4h0.4c0,1.7-1.4,3.1-3.1,3.1s-3.1-1.4-3.1-3.1c0-1.7,1.4-3.1,3.1-3.1s3.1,1.4,3.1,3.1H326.4z"/>
	</g>
	<g>
		<defs>
			<rect id="SVGID_53_" x="113" y="59" width="270.7" height="155.5"/>
		</defs>
		<clipPath id="SVGID_54_">
			<use xlink:href="#SVGID_53_"  overflow="visible"/>
		</clipPath>
		<path clip-path="url(#SVGID_54_)" d="M341.4,171.9H341c0-1.3-1.1-2.4-2.4-2.4s-2.4,1.1-2.4,2.4c0,1.3,1.1,2.4,2.4,2.4
			s2.4-1.1,2.4-2.4H341.4h0.4c0,1.7-1.4,3.1-3.1,3.1s-3.1-1.4-3.1-3.1s1.4-3.1,3.1-3.1s3.1,1.4,3.1,3.1H341.4z M336.4,171.9H336
			c0-1.3-1.1-2.4-2.4-2.4s-2.4,1.1-2.4,2.4c0,1.3,1.1,2.4,2.4,2.4s2.4-1.1,2.4-2.4H336.4h0.4c0,1.7-1.4,3.1-3.1,3.1
			s-3.1-1.4-3.1-3.1c0-1.7,1.4-3.1,3.1-3.1s3.1,1.4,3.1,3.1H336.4z M331.4,171.9H331c0-1.3-1.1-2.4-2.4-2.4s-2.4,1.1-2.4,2.4
			c0,1.3,1.1,2.4,2.4,2.4s2.4-1.1,2.4-2.4H331.4h0.4c0,1.7-1.4,3.1-3.1,3.1s-3.1-1.4-3.1-3.1c0-1.7,1.4-3.1,3.1-3.1s3.1,1.4,3.1,3.1
			H331.4z"/>
	</g>
	<g>
		<defs>
			<rect id="SVGID_55_" x="113" y="59" width="270.7" height="155.5"/>
		</defs>
		<clipPath id="SVGID_56_">
			<use xlink:href="#SVGID_55_"  overflow="visible"/>
		</clipPath>
		<path clip-path="url(#SVGID_56_)" d="M346.4,179.3H346c0-1.3-1.1-2.4-2.4-2.4s-2.4,1.1-2.4,2.4c0,1.3,1.1,2.4,2.4,2.4
			s2.4-1.1,2.4-2.4H346.4h0.4c0,1.7-1.4,3.1-3.1,3.1s-3.1-1.4-3.1-3.1c0-1.7,1.4-3.1,3.1-3.1s3.1,1.4,3.1,3.1H346.4z"/>
	</g>
	<g>
		<defs>
			<rect id="SVGID_57_" x="113" y="59" width="270.7" height="155.5"/>
		</defs>
		<clipPath id="SVGID_58_">
			<use xlink:href="#SVGID_57_"  overflow="visible"/>
		</clipPath>
		<path clip-path="url(#SVGID_58_)" d="M351.4,164.6H351c0-1.3-1.1-2.4-2.4-2.4s-2.4,1.1-2.4,2.4c0,1.3,1.1,2.4,2.4,2.4
			s2.4-1.1,2.4-2.4H351.4h0.4c0,1.7-1.4,3.1-3.1,3.1s-3.1-1.4-3.1-3.1c0-1.7,1.4-3.1,3.1-3.1s3.1,1.4,3.1,3.1H351.4z"/>
	</g>
	<g>
		<defs>
			<rect id="SVGID_59_" x="113" y="59" width="270.7" height="155.5"/>
		</defs>
		<clipPath id="SVGID_60_">
			<use xlink:href="#SVGID_59_"  overflow="visible"/>
		</clipPath>
		<path clip-path="url(#SVGID_60_)" d="M356.4,160.9H356c0-1.3-1.1-2.4-2.4-2.4s-2.4,1.1-2.4,2.4c0,1.3,1.1,2.4,2.4,2.4
			s2.4-1.1,2.4-2.4H356.4h0.4c0,1.7-1.4,3.1-3.1,3.1s-3.1-1.4-3.1-3.1c0-1.7,1.4-3.1,3.1-3.1s3.1,1.4,3.1,3.1H356.4z"/>
	</g>
	<g>
		<defs>
			<rect id="SVGID_61_" x="113" y="59" width="270.7" height="155.5"/>
		</defs>
		<clipPath id="SVGID_62_">
			<use xlink:href="#SVGID_61_"  overflow="visible"/>
		</clipPath>
		<path clip-path="url(#SVGID_62_)" d="M361.5,183h-0.4c0-1.3-1.1-2.4-2.4-2.4s-2.4,1.1-2.4,2.4c0,1.3,1.1,2.4,2.4,2.4
			s2.4-1.1,2.4-2.4H361.5h0.4c0,1.7-1.4,3.1-3.1,3.1s-3.1-1.4-3.1-3.1c0-1.7,1.4-3.1,3.1-3.1s3.1,1.4,3.1,3.1H361.5z"/>
	</g>
	<g>
		<defs>
			<rect id="SVGID_63_" x="113" y="59" width="270.7" height="155.5"/>
		</defs>
		<clipPath id="SVGID_64_">
			<use xlink:href="#SVGID_63_"  overflow="visible"/>
		</clipPath>
		<path clip-path="url(#SVGID_64_)" d="M366.5,194.1h-0.4c0-1.3-1.1-2.4-2.4-2.4s-2.4,1.1-2.4,2.4c0,1.3,1.1,2.4,2.4,2.4
			s2.4-1.1,2.4-2.4H366.5h0.4c0,1.7-1.4,3.1-3.1,3.1s-3.1-1.4-3.1-3.1c0-1.7,1.4-3.1,3.1-3.1s3.1,1.4,3.1,3.1H366.5z"/>
	</g>
	<g>
		<defs>
			<rect id="SVGID_65_" x="113" y="59" width="270.7" height="155.5"/>
		</defs>
		<clipPath id="SVGID_66_">
			<use xlink:href="#SVGID_65_"  overflow="visible"/>
		</clipPath>
		<path clip-path="url(#SVGID_66_)" d="M371.5,186.7h-0.4c0-1.3-1.1-2.4-2.4-2.4s-2.4,1.1-2.4,2.4c0,1.3,1.1,2.4,2.4,2.4
			s2.4-1.1,2.4-2.4H371.5h0.4c0,1.7-1.4,3.1-3.1,3.1s-3.1-1.4-3.1-3.1c0-1.7,1.4-3.1,3.1-3.1s3.1,1.4,3.1,3.1H371.5z"/>
	</g>
	<g>
		<defs>
			<rect id="SVGID_67_" x="113" y="59" width="270.7" height="155.5"/>
		</defs>
		<clipPath id="SVGID_68_">
			<use xlink:href="#SVGID_67_"  overflow="visible"/>
		</clipPath>
		<path clip-path="url(#SVGID_68_)" d="M376.5,205.2h-0.4c0-1.3-1.1-2.4-2.4-2.4s-2.4,1.1-2.4,2.4c0,1.3,1.1,2.4,2.4,2.4
			s2.4-1.1,2.4-2.4H376.5h0.4c0,1.7-1.4,3.1-3.1,3.1s-3.1-1.4-3.1-3.1c0-1.7,1.4-3.1,3.1-3.1s3.1,1.4,3.1,3.1H376.5z"/>
	</g>
</g>
<path d="M123.1,214.2h250.7c0.2,0,0.4,0.2,0.4,0.4s-0.2,0.4-0.4,0.4H123.1c-0.2,0-0.4-0.2-0.4-0.4S122.9,214.2,123.1,214.2"/>
<line fill="none" stroke="#000000" stroke-width="0.75" stroke-linecap="round" stroke-linejoin="round" stroke-miterlimit="10" x1="123.1" y1="214.6" x2="123.1" y2="221.8"/>
<path d="M173.6,214.6v7.2c0,0.2-0.2,0.4-0.4,0.4s-0.4-0.2-0.4-0.4v-7.2c0-0.2,0.2-0.4,0.4-0.4C173.4,214.2,173.6,214.4,173.6,214.6"
	/>
<line fill="none" stroke="#000000" stroke-width="0.75" stroke-linecap="round" stroke-linejoin="round" stroke-miterlimit="10" x1="223.3" y1="214.6" x2="223.3" y2="221.8"/>
<line fill="none" stroke="#000000" stroke-width="0.75" stroke-linecap="round" stroke-linejoin="round" stroke-miterlimit="10" x1="273.5" y1="214.6" x2="273.5" y2="221.8"/>
<line fill="none" stroke="#000000" stroke-width="0.75" stroke-linecap="round" stroke-linejoin="round" stroke-miterlimit="10" x1="323.6" y1="214.6" x2="323.6" y2="221.8"/>
<line fill="none" stroke="#000000" stroke-width="0.75" stroke-linecap="round" stroke-linejoin="round" stroke-miterlimit="10" x1="373.7" y1="214.6" x2="373.7" y2="221.8"/>
<path d="M380.3,239.7c-0.7,0-1.2-0.4-1.4-1.2c-0.2-0.5-0.3-1.2-0.3-2.1c0-1.1,0.1-2,0.4-2.6s0.7-0.9,1.4-0.9c0.7,0,1.1,0.3,1.4,0.9
	c0.2,0.6,0.4,1.4,0.4,2.4c0,1.3-0.2,2.2-0.5,2.7C381.3,239.5,380.9,239.7,380.3,239.7 M380.3,232.1c-1.2,0-2,0.6-2.5,1.9
	c-0.2,0.7-0.4,1.5-0.4,2.5c0,1.2,0.2,2.2,0.6,2.9c0.5,0.9,1.2,1.3,2.3,1.3c1.1,0,1.9-0.5,2.4-1.6c0.3-0.7,0.5-1.7,0.5-2.8
	c0-1.2-0.2-2.2-0.6-2.8C382.2,232.5,381.4,232.1,380.3,232.1 M373.6,239.7c-0.7,0-1.2-0.4-1.4-1.2c-0.2-0.5-0.3-1.2-0.3-2.1
	c0-1.1,0.1-2,0.4-2.6s0.7-0.9,1.4-0.9c0.7,0,1.1,0.3,1.4,0.9c0.2,0.6,0.4,1.4,0.4,2.4c0,1.3-0.2,2.2-0.5,2.7
	C374.6,239.5,374.2,239.7,373.6,239.7 M373.6,232.1c-1.2,0-2,0.6-2.5,1.9c-0.2,0.7-0.4,1.5-0.4,2.5c0,1.2,0.2,2.2,0.6,2.9
	c0.5,0.9,1.2,1.3,2.2,1.3c1.1,0,1.9-0.5,2.4-1.6c0.3-0.7,0.5-1.7,0.5-2.8c0-1.2-0.2-2.2-0.6-2.8
	C375.5,232.5,374.7,232.1,373.6,232.1 M364.1,238.3c0.1,0.8,0.4,1.4,0.9,1.8c0.5,0.4,1.1,0.6,1.8,0.6c1.1,0,1.9-0.3,2.3-0.9
	c0.5-0.6,0.7-1.3,0.7-2.1s-0.3-1.4-0.8-1.9s-1.2-0.7-2-0.7c-0.4,0-0.8,0.1-1.1,0.2c-0.2,0.1-0.4,0.2-0.6,0.3l0.4-2.3h3.6v-1h-4.4
	l-0.6,4.5l0.9,0.1c0.2-0.2,0.4-0.4,0.7-0.6c0.3-0.1,0.6-0.2,0.9-0.2c0.5,0,0.9,0.2,1.3,0.5s0.5,0.8,0.5,1.4c0,0.5-0.2,0.9-0.5,1.3
	c-0.3,0.4-0.8,0.6-1.4,0.6c-0.3,0-0.6-0.1-0.9-0.2c-0.5-0.2-0.8-0.6-0.8-1.2h-0.9 M330.2,239.7c-0.7,0-1.2-0.4-1.4-1.2
	c-0.2-0.5-0.3-1.2-0.3-2.1c0-1.1,0.1-2,0.4-2.6s0.7-0.9,1.4-0.9c0.7,0,1.1,0.3,1.4,0.9c0.2,0.6,0.4,1.4,0.4,2.4
	c0,1.3-0.2,2.2-0.5,2.7C331.1,239.5,330.7,239.7,330.2,239.7 M330.2,232.1c-1.2,0-2,0.6-2.5,1.9c-0.2,0.7-0.4,1.5-0.4,2.5
	c0,1.2,0.2,2.2,0.6,2.9c0.5,0.9,1.2,1.3,2.2,1.3c1.1,0,1.9-0.5,2.4-1.6c0.3-0.7,0.5-1.7,0.5-2.8c0-1.2-0.2-2.2-0.6-2.8
	C332.1,232.5,331.3,232.1,330.2,232.1 M323.5,239.7c-0.7,0-1.2-0.4-1.4-1.2c-0.2-0.5-0.3-1.2-0.3-2.1c0-1.1,0.1-2,0.4-2.6
	s0.7-0.9,1.4-0.9c0.7,0,1.1,0.3,1.4,0.9c0.2,0.6,0.4,1.4,0.4,2.4c0,1.3-0.2,2.2-0.5,2.7C324.5,239.5,324,239.7,323.5,239.7
	 M323.5,232.1c-1.2,0-2,0.6-2.5,1.9c-0.2,0.7-0.4,1.5-0.4,2.5c0,1.2,0.2,2.2,0.6,2.9c0.5,0.9,1.2,1.3,2.2,1.3c1.1,0,1.9-0.5,2.4-1.6
	c0.3-0.7,0.5-1.7,0.5-2.8c0-1.2-0.2-2.2-0.6-2.8C325.4,232.5,324.6,232.1,323.5,232.1 M318.6,240.5v-2.1h1.2v-0.9h-1.2v-5.4h-0.9
	l-3.8,5.3v1h3.7v2.1L318.6,240.5 M314.9,237.5l2.7-3.8v3.8H314.9 M280,239.7c-0.7,0-1.2-0.4-1.4-1.2c-0.2-0.5-0.3-1.2-0.3-2.1
	c0-1.1,0.1-2,0.4-2.6c0.3-0.6,0.7-0.9,1.4-0.9c0.7,0,1.1,0.3,1.4,0.9c0.2,0.6,0.4,1.4,0.4,2.4c0,1.3-0.2,2.2-0.5,2.7
	C281,239.5,280.6,239.7,280,239.7 M280.1,232.1c-1.2,0-2,0.6-2.5,1.9c-0.2,0.7-0.4,1.5-0.4,2.5c0,1.2,0.2,2.2,0.6,2.9
	c0.5,0.9,1.2,1.3,2.2,1.3c1.1,0,1.9-0.5,2.4-1.6c0.3-0.7,0.5-1.7,0.5-2.8c0-1.2-0.2-2.2-0.6-2.8
	C281.9,232.5,281.1,232.1,280.1,232.1 M273.4,239.7c-0.7,0-1.2-0.4-1.4-1.2c-0.2-0.5-0.3-1.2-0.3-2.1c0-1.1,0.1-2,0.4-2.6
	s0.7-0.9,1.4-0.9c0.7,0,1.1,0.3,1.4,0.9c0.2,0.6,0.4,1.4,0.4,2.4c0,1.3-0.2,2.2-0.5,2.7C274.3,239.5,273.9,239.7,273.4,239.7
	 M273.4,232.1c-1.2,0-2,0.6-2.5,1.9c-0.2,0.7-0.4,1.5-0.4,2.5c0,1.2,0.2,2.2,0.6,2.9c0.5,0.9,1.2,1.3,2.2,1.3c1.1,0,1.9-0.5,2.4-1.6
	c0.3-0.7,0.5-1.7,0.5-2.8c0-1.2-0.2-2.2-0.6-2.8C275.2,232.5,274.5,232.1,273.4,232.1 M266.6,240.7c1,0,1.7-0.3,2.2-0.8
	s0.8-1.2,0.8-2c0-0.5-0.1-0.9-0.4-1.3c-0.2-0.3-0.6-0.6-1-0.7c0.3-0.1,0.5-0.3,0.7-0.5c0.3-0.3,0.4-0.7,0.4-1.3
	c0-0.7-0.2-1.3-0.7-1.7s-1.1-0.6-2-0.6c-1.1,0-1.8,0.4-2.3,1.2c-0.2,0.4-0.4,1-0.4,1.6h1c0-0.5,0.1-0.8,0.3-1.1
	c0.3-0.5,0.8-0.7,1.5-0.7c0.4,0,0.7,0.1,1,0.3c0.3,0.2,0.4,0.5,0.4,1c0,0.6-0.2,1-0.7,1.2c-0.3,0.1-0.6,0.2-1,0.2h-0.2
	c-0.1,0-0.2,0-0.3,0v0.9h0.2h0.2c0.6,0,1.1,0.1,1.5,0.3s0.5,0.6,0.5,1.2c0,0.5-0.2,0.9-0.5,1.1c-0.3,0.3-0.8,0.4-1.3,0.4
	c-0.7,0-1.2-0.2-1.5-0.7c-0.2-0.2-0.3-0.6-0.3-1.2h-1.1c0,0.8,0.2,1.4,0.7,2S265.6,240.7,266.6,240.7 M229.9,239.7
	c-0.7,0-1.2-0.4-1.4-1.2c-0.2-0.5-0.3-1.2-0.3-2.1c0-1.1,0.1-2,0.4-2.6c0.3-0.6,0.7-0.9,1.4-0.9s1.1,0.3,1.4,0.9
	c0.2,0.6,0.4,1.4,0.4,2.4c0,1.3-0.2,2.2-0.5,2.7C230.9,239.5,230.5,239.7,229.9,239.7 M229.9,232.1c-1.2,0-2,0.6-2.5,1.9
	c-0.2,0.7-0.4,1.5-0.4,2.5c0,1.2,0.2,2.2,0.6,2.9c0.5,0.9,1.2,1.3,2.2,1.3c1.1,0,1.9-0.5,2.4-1.6c0.3-0.7,0.5-1.7,0.5-2.8
	c0-1.2-0.2-2.2-0.6-2.8C231.8,232.5,231,232.1,229.9,232.1 M223.2,239.7c-0.7,0-1.2-0.4-1.4-1.2c-0.2-0.5-0.3-1.2-0.3-2.1
	c0-1.1,0.1-2,0.4-2.6c0.3-0.6,0.7-0.9,1.4-0.9s1.1,0.3,1.4,0.9c0.2,0.6,0.4,1.4,0.4,2.4c0,1.3-0.2,2.2-0.5,2.7
	C224.2,239.5,223.8,239.7,223.2,239.7 M223.2,232.1c-1.2,0-2,0.6-2.5,1.9c-0.2,0.7-0.4,1.5-0.4,2.5c0,1.2,0.2,2.2,0.6,2.9
	c0.5,0.9,1.2,1.3,2.2,1.3c1.1,0,1.9-0.5,2.4-1.6c0.3-0.7,0.5-1.7,0.5-2.8c0-1.2-0.2-2.2-0.6-2.8
	C225.1,232.5,224.3,232.1,223.2,232.1 M213.7,240.5h5.8v-1h-4.6c0.1-0.4,0.3-0.8,0.7-1.1c0.2-0.2,0.5-0.4,0.9-0.6l0.8-0.4
	c0.7-0.4,1.2-0.7,1.5-1c0.5-0.5,0.7-1.1,0.7-1.7c0-0.6-0.2-1.2-0.7-1.7c-0.4-0.5-1.1-0.8-2.1-0.8c-1.2,0-2,0.4-2.4,1.2
	c-0.3,0.5-0.4,1.1-0.4,1.8h1.1c0-0.5,0.1-0.9,0.2-1.2c0.3-0.5,0.8-0.8,1.5-0.8c0.5,0,0.9,0.1,1.2,0.4c0.3,0.3,0.4,0.7,0.4,1.2
	c0,0.4-0.2,0.8-0.5,1.1c-0.2,0.2-0.6,0.5-1.1,0.8l-1.1,0.6c-0.8,0.4-1.3,0.9-1.5,1.5C213.9,239.1,213.7,239.8,213.7,240.5
	 M179.8,239.7c-0.7,0-1.2-0.4-1.4-1.2c-0.2-0.5-0.3-1.2-0.3-2.1c0-1.1,0.1-2,0.4-2.6s0.7-0.9,1.4-0.9s1.1,0.3,1.4,0.9
	c0.2,0.6,0.4,1.4,0.4,2.4c0,1.3-0.2,2.2-0.5,2.7C180.8,239.5,180.3,239.7,179.8,239.7 M179.8,232.1c-1.2,0-2,0.6-2.5,1.9
	c-0.2,0.7-0.4,1.5-0.4,2.5c0,1.2,0.2,2.2,0.6,2.9c0.5,0.9,1.2,1.3,2.2,1.3c1.1,0,1.9-0.5,2.4-1.6c0.3-0.7,0.5-1.7,0.5-2.8
	c0-1.2-0.2-2.2-0.6-2.8C181.7,232.5,180.9,232.1,179.8,232.1 M173.1,239.7c-0.7,0-1.2-0.4-1.4-1.2c-0.2-0.5-0.3-1.2-0.3-2.1
	c0-1.1,0.1-2,0.4-2.6s0.7-0.9,1.4-0.9c0.7,0,1.1,0.3,1.4,0.9c0.2,0.6,0.4,1.4,0.4,2.4c0,1.3-0.2,2.2-0.5,2.7
	C174.1,239.5,173.6,239.7,173.1,239.7 M173.1,232.1c-1.2,0-2,0.6-2.5,1.9c-0.2,0.7-0.4,1.5-0.4,2.5c0,1.2,0.2,2.2,0.6,2.9
	c0.5,0.9,1.2,1.3,2.2,1.3c1.1,0,1.9-0.5,2.4-1.6c0.3-0.7,0.5-1.7,0.5-2.8c0-1.2-0.2-2.2-0.6-2.8C175,232.5,174.2,232.1,173.1,232.1
	 M166.3,234.5v5.9h1.1V232h-0.8c-0.1,0.6-0.4,1.1-0.7,1.2c-0.3,0.2-0.8,0.3-1.6,0.4v0.8h2 M123,239.7c-0.7,0-1.2-0.4-1.4-1.2
	c-0.2-0.5-0.3-1.2-0.3-2.1c0-1.1,0.1-2,0.4-2.6s0.7-0.9,1.4-0.9c0.7,0,1.1,0.3,1.4,0.9c0.2,0.6,0.4,1.4,0.4,2.4
	c0,1.3-0.2,2.2-0.5,2.7C123.9,239.5,123.5,239.7,123,239.7 M123,232.1c-1.2,0-2,0.6-2.5,1.9c-0.2,0.7-0.4,1.5-0.4,2.5
	c0,1.2,0.2,2.2,0.6,2.9c0.5,0.9,1.2,1.3,2.2,1.3c1.1,0,1.9-0.5,2.4-1.6c0.3-0.7,0.5-1.7,0.5-2.8c0-1.2-0.2-2.2-0.6-2.8
	C124.8,232.5,124.1,232.1,123,232.1"/>
<line fill="none" stroke="#000000" stroke-width="0.75" stroke-linecap="round" stroke-linejoin="round" stroke-miterlimit="10" x1="113" y1="208.8" x2="113" y2="61.1"/>
<line fill="none" stroke="#000000" stroke-width="0.75" stroke-linecap="round" stroke-linejoin="round" stroke-miterlimit="10" x1="113" y1="208.8" x2="105.8" y2="208.8"/>
<line fill="none" stroke="#000000" stroke-width="0.75" stroke-linecap="round" stroke-linejoin="round" stroke-miterlimit="10" x1="113" y1="171.9" x2="105.8" y2="171.9"/>
<line fill="none" stroke="#000000" stroke-width="0.75" stroke-linecap="round" stroke-linejoin="round" stroke-miterlimit="10" x1="113" y1="134.9" x2="105.8" y2="134.9"/>
<line fill="none" stroke="#000000" stroke-width="0.75" stroke-linecap="round" stroke-linejoin="round" stroke-miterlimit="10" x1="113" y1="98" x2="105.8" y2="98"/>
<line fill="none" stroke="#000000" stroke-width="0.75" stroke-linecap="round" stroke-linejoin="round" stroke-miterlimit="10" x1="113" y1="61.1" x2="105.8" y2="61.1"/>
<path d="M95,46c0,0.6-0.2,1-0.5,1.3c-0.4,0.3-0.8,0.5-1.3,0.5c-0.6,0-1.1-0.2-1.4-0.5c-0.3-0.3-0.5-0.7-0.5-1.2
	c0-0.6,0.2-1.1,0.6-1.3c0.4-0.2,0.8-0.4,1.2-0.4c0.5,0,0.9,0.1,1.3,0.4C94.9,45,95,45.4,95,46 M87.3,45.9c0,1.3,0.7,2.2,2.1,2.7
	c0.7,0.3,1.6,0.4,2.7,0.4c1.4,0,2.4-0.3,3-0.9c0.6-0.6,0.9-1.2,0.9-2c0-0.9-0.3-1.6-0.9-2.1s-1.3-0.7-2-0.7c-0.9,0-1.6,0.3-2,0.8
	s-0.7,1.1-0.7,1.8c0,0.4,0.1,0.8,0.2,1.1c0.2,0.4,0.4,0.7,0.8,0.9c-1,0-1.8-0.2-2.3-0.6c-0.5-0.3-0.8-0.8-0.8-1.4
	c0-0.5,0.2-0.9,0.5-1.2c0.2-0.1,0.4-0.2,0.8-0.3v-1c-0.5,0-1,0.2-1.5,0.6C87.6,44.3,87.3,45,87.3,45.9 M95,52.7c0,0.6-0.2,1-0.5,1.3
	c-0.4,0.3-0.8,0.5-1.3,0.5c-0.6,0-1.1-0.2-1.4-0.5c-0.3-0.3-0.5-0.7-0.5-1.2c0-0.6,0.2-1.1,0.6-1.3c0.4-0.2,0.8-0.4,1.2-0.4
	c0.5,0,0.9,0.1,1.3,0.4C94.9,51.7,95,52.1,95,52.7 M87.3,52.6c0,1.3,0.7,2.2,2.1,2.7c0.7,0.3,1.6,0.4,2.7,0.4c1.4,0,2.4-0.3,3-0.9
	c0.6-0.6,0.9-1.2,0.9-2c0-0.9-0.3-1.6-0.9-2.1s-1.3-0.7-2-0.7c-0.9,0-1.6,0.3-2,0.8s-0.7,1.1-0.7,1.8c0,0.4,0.1,0.8,0.2,1.1
	c0.2,0.4,0.4,0.7,0.8,0.9c-1,0-1.8-0.2-2.3-0.6c-0.5-0.3-0.8-0.8-0.8-1.4c0-0.5,0.2-0.9,0.5-1.2c0.2-0.1,0.4-0.2,0.8-0.3v-1
	c-0.5,0-1,0.2-1.5,0.6C87.6,51,87.3,51.7,87.3,52.6 M95.8,57.7h-2v-1.2h-0.9v1.2h-5.4v0.9l5.3,3.8h1v-3.7h2
	C95.8,58.7,95.8,57.7,95.8,57.7z M92.8,61.5L89,58.8h3.8V61.5z M95.8,64.4h-2v-1.2h-0.9v1.2h-5.4v0.9l5.3,3.8h1v-3.7h2
	C95.8,65.4,95.8,64.4,95.8,64.4z M92.8,68.2L89,65.5h3.8V68.2z M95.8,70.5h-1.3v1.2h1.3V70.5z M89.8,76.3h5.9v-1.1h-8.4V76
	c0.6,0.1,1.1,0.4,1.2,0.7c0.2,0.3,0.3,0.8,0.4,1.6h0.8L89.8,76.3L89.8,76.3z M95.8,118.2h-2V117h-0.9v1.2h-5.4v0.9l5.3,3.8h1v-3.7h2
	C95.8,119.2,95.8,118.2,95.8,118.2z M92.8,122l-3.8-2.7h3.8V122z M95,126.5c0,0.6-0.2,1-0.5,1.3c-0.4,0.3-0.8,0.5-1.3,0.5
	c-0.6,0-1.1-0.2-1.4-0.5c-0.3-0.3-0.5-0.7-0.5-1.2c0-0.6,0.2-1.1,0.6-1.3c0.4-0.2,0.8-0.4,1.2-0.4c0.5,0,0.9,0.1,1.3,0.4
	C94.9,125.5,95,126,95,126.5 M87.3,126.4c0,1.3,0.7,2.2,2.1,2.7c0.7,0.3,1.6,0.4,2.7,0.4c1.4,0,2.4-0.3,3-0.9c0.6-0.6,0.9-1.2,0.9-2
	c0-0.9-0.3-1.6-0.9-2.1s-1.3-0.7-2-0.7c-0.9,0-1.6,0.3-2,0.8s-0.7,1.1-0.7,1.8c0,0.4,0.1,0.8,0.2,1.1c0.2,0.4,0.4,0.7,0.8,0.9
	c-1,0-1.8-0.2-2.3-0.6c-0.5-0.3-0.8-0.8-0.8-1.4c0-0.5,0.2-0.9,0.5-1.2c0.2-0.1,0.4-0.2,0.8-0.3v-1c-0.5,0-1,0.2-1.5,0.6
	S87.3,125.5,87.3,126.4 M95.8,131.6h-2v-1.2h-0.9v1.2h-5.4v0.9l5.3,3.8h1v-3.7h2C95.8,132.6,95.8,131.6,95.8,131.6z M92.8,135.3
	l-3.8-2.7h3.8V135.3z M95.8,138.3h-2V137h-0.9v1.2h-5.4v0.9l5.3,3.8h1v-3.7h2C95.8,139.2,95.8,138.3,95.8,138.3z M92.8,142l-3.8-2.7
	h3.8V142z M95.8,144.4h-1.3v1.2h1.3V144.4z M89.8,150.2h5.9v-1.1h-8.4v0.8c0.6,0.1,1.1,0.4,1.2,0.7c0.2,0.3,0.3,0.8,0.4,1.6h0.8
	L89.8,150.2L89.8,150.2z M95.8,196.8V191h-1v4.6c-0.4-0.1-0.8-0.3-1.1-0.7c-0.2-0.2-0.4-0.5-0.6-0.9l-0.4-0.8
	c-0.4-0.7-0.7-1.2-1-1.5c-0.5-0.5-1.1-0.7-1.7-0.7s-1.2,0.2-1.7,0.7c-0.5,0.4-0.8,1.1-0.8,2.1c0,1.2,0.4,2,1.2,2.4
	c0.5,0.3,1.1,0.4,1.8,0.4v-1.1c-0.5,0-0.9-0.1-1.2-0.2c-0.5-0.3-0.8-0.8-0.8-1.5c0-0.5,0.1-0.9,0.4-1.2c0.3-0.3,0.7-0.4,1.2-0.4
	c0.4,0,0.8,0.2,1.1,0.5c0.2,0.2,0.5,0.6,0.8,1.1l0.7,1.1c0.4,0.8,0.9,1.3,1.5,1.5C94.4,196.6,95,196.7,95.8,196.8 M95,200.4
	c0,0.6-0.2,1-0.5,1.3c-0.4,0.3-0.8,0.5-1.3,0.5c-0.6,0-1.1-0.2-1.4-0.5c-0.3-0.3-0.5-0.7-0.5-1.2c0-0.6,0.2-1.1,0.6-1.3
	c0.4-0.2,0.8-0.4,1.2-0.4c0.5,0,0.9,0.1,1.3,0.4C94.9,199.4,95,199.8,95,200.4 M87.3,200.3c0,1.3,0.7,2.2,2.1,2.7
	c0.7,0.3,1.6,0.4,2.7,0.4c1.4,0,2.4-0.3,3-0.9c0.6-0.6,0.9-1.2,0.9-2c0-0.9-0.3-1.6-0.9-2.1s-1.3-0.7-2-0.7c-0.9,0-1.6,0.3-2,0.8
	s-0.7,1.1-0.7,1.8c0,0.4,0.1,0.8,0.2,1.1c0.2,0.4,0.4,0.7,0.8,0.9c-1,0-1.8-0.2-2.3-0.6c-0.5-0.3-0.8-0.8-0.8-1.4
	c0-0.5,0.2-0.9,0.5-1.2c0.2-0.1,0.4-0.2,0.8-0.3v-1c-0.5,0-1,0.2-1.5,0.6C87.6,198.7,87.3,199.4,87.3,200.3 M95.8,205.4h-2v-1.2
	h-0.9v1.2h-5.4v0.9l5.3,3.8h1v-3.7h2C95.8,206.4,95.8,205.4,95.8,205.4z M92.8,209.2l-3.8-2.7h3.8V209.2z M95.8,212.1h-2v-1.2h-0.9
	v1.2h-5.4v0.9l5.3,3.8h1v-3.7h2C95.8,213.1,95.8,212.1,95.8,212.1z M92.8,215.9l-3.8-2.7h3.8V215.9z M95.8,218.2h-1.3v1.2h1.3V218.2
	z M89.8,224h5.9v-1.1h-8.4v0.8c0.6,0.1,1.1,0.4,1.2,0.7c0.2,0.3,0.3,0.8,0.4,1.6h0.8L89.8,224L89.8,224z"/>
<path d="M113,214.2h270.3V59.4h-270v155.1c0,0.2-0.2,0.4-0.4,0.4c-0.2,0-0.4-0.2-0.4-0.4V59c0-0.1,0-0.2,0.1-0.3s0.2-0.1,0.3-0.1
	h270.7c0.1,0,0.2,0,0.3,0.1c0.1,0.1,0.1,0.2,0.1,0.3v155.5c0,0.1,0,0.2-0.1,0.3s-0.2,0.1-0.3,0.1H113c-0.2,0-0.4-0.2-0.4-0.4
	S112.8,214.2,113,214.2"/>
<path d="M258.3,265.6c0-0.5,0.2-1,0.5-1.3c0.3-0.3,0.7-0.5,1.2-0.5c0.7,0,1.1,0.3,1.4,0.8c0.2,0.3,0.3,0.6,0.3,1.1h-3.4V265.6z
	 M260.1,262.9c-0.9,0-1.6,0.3-2.1,0.9s-0.8,1.4-0.8,2.5c0,1,0.3,1.8,0.8,2.4s1.2,0.9,2,0.9c0.3,0,0.6,0,0.9-0.1
	c0.5-0.1,0.9-0.3,1.2-0.6c0.2-0.2,0.4-0.4,0.5-0.7c0.2-0.3,0.2-0.5,0.3-0.8h-1c-0.1,0.3-0.2,0.5-0.4,0.7c-0.3,0.4-0.8,0.5-1.3,0.5
	c-0.6,0-1-0.2-1.3-0.6c-0.3-0.4-0.4-0.9-0.4-1.5h4.6c0-0.6,0-1.1-0.1-1.4c-0.1-0.4-0.2-0.8-0.4-1.1c-0.2-0.3-0.5-0.6-0.9-0.8
	C261,263,260.5,262.9,260.1,262.9 M254.9,269.3h1.1v-8.6h-1.1V269.3z M251.3,262.8c-0.8,0-1.5,0.3-2,0.9s-0.8,1.5-0.8,2.6
	c0,0.9,0.2,1.6,0.7,2.2s1.1,0.9,2,0.9c0.7,0,1.3-0.2,1.8-0.6s0.8-1,0.9-1.8h-1c-0.1,0.5-0.3,0.8-0.5,1.1c-0.3,0.3-0.6,0.4-1,0.4
	c-0.6,0-1-0.2-1.3-0.6s-0.4-1-0.4-1.6s0.1-1.1,0.3-1.6c0.3-0.7,0.8-1,1.4-1c0.5,0,0.8,0.1,1.1,0.4c0.2,0.3,0.4,0.6,0.4,1h1
	c-0.1-0.8-0.4-1.4-0.8-1.8C252.5,263,252,262.8,251.3,262.8 M245.1,268.1l-1.7-5.1h-1.2l2.3,6.5c-0.1,0.1-0.1,0.4-0.3,0.6
	c-0.1,0.3-0.2,0.4-0.2,0.5c-0.1,0.1-0.1,0.2-0.2,0.2c-0.1,0.1-0.2,0.1-0.4,0.1h-0.2c-0.1,0-0.2,0-0.4-0.1v1c0.1,0,0.2,0.1,0.3,0.1
	s0.2,0,0.3,0c0.6,0,1-0.2,1.3-0.5c0.2-0.4,0.7-1.3,1.3-2.9c0.3-0.7,0.6-1.6,1-2.6c0.5-1.4,0.8-2.4,1-2.8h-1.2L245.1,268.1z
	 M237.9,260.4c-1.3,0-2.3,0.4-3,1.3c-0.7,0.8-1,1.9-1,3.1c0,1.7,0.4,2.9,1.3,3.7c0.7,0.6,1.5,0.9,2.5,0.9c1.1,0,2.1-0.4,2.7-1.1
	c0.6-0.6,0.9-1.4,1-2.3h-1.1c-0.1,0.6-0.3,1-0.5,1.4c-0.4,0.7-1.1,1-1.9,1c-0.9,0-1.6-0.3-2.1-0.9s-0.7-1.4-0.7-2.5
	c0-1.2,0.3-2.1,0.8-2.7s1.2-0.9,2-0.9c0.7,0,1.2,0.2,1.6,0.5c0.4,0.3,0.6,0.8,0.8,1.3h1.1c-0.1-0.7-0.4-1.4-1-2
	C239.8,260.7,239,260.4,237.9,260.4"/>
<path d="M69.4,97.6c-1.1-0.7-2-1.2-2.6-1.4c-0.9-0.4-1.9-0.6-3.1-0.6c-0.4,0-0.9,0-1.4,0.1s-1,0.2-1.4,0.4c-0.4,0.1-0.7,0.3-0.9,0.4
	c-0.2,0.1-0.8,0.5-1.8,1.1v0.7c1.1-0.6,1.9-1,2.5-1.2c0.9-0.3,2-0.5,3.1-0.5s2.1,0.1,3,0.4c0.6,0.2,1.4,0.6,2.6,1.2V97.6z M65,104.4
	c0.6,0,1.1-0.2,1.6-0.6c0.4-0.4,0.6-1.1,0.6-2s-0.2-1.5-0.6-2c-0.4-0.4-0.9-0.6-1.4-0.6c-0.6,0-1,0.2-1.3,0.6
	c-0.2,0.3-0.4,0.8-0.5,1.6l-0.2,0.6c-0.1,0.3-0.2,0.5-0.3,0.7c-0.2,0.3-0.4,0.4-0.7,0.4c-0.2,0-0.4-0.1-0.6-0.3s-0.2-0.5-0.2-0.9
	c0-0.6,0.1-1,0.4-1.3c0.2-0.2,0.4-0.2,0.6-0.3v-1c-0.4,0-0.8,0.1-1.1,0.4c-0.6,0.4-0.8,1.1-0.8,2.1c0,0.7,0.2,1.3,0.6,1.7
	c0.4,0.4,0.8,0.6,1.4,0.6c0.5,0,0.9-0.2,1.2-0.7c0.2-0.3,0.3-0.7,0.4-1.2l0.2-0.9c0.1-0.5,0.2-0.8,0.3-0.9c0.1-0.2,0.3-0.4,0.6-0.4
	c0.4,0,0.6,0.2,0.8,0.5c0.2,0.3,0.3,0.7,0.3,1.1c0,0.7-0.2,1.1-0.5,1.4c-0.2,0.1-0.5,0.2-0.8,0.3V104.4z M67,110.7v-1.1h-3.3
	c-0.4,0-0.7,0-0.9-0.1s-0.4-0.2-0.6-0.3c-0.3-0.2-0.4-0.5-0.5-0.8c-0.1-0.2-0.1-0.4-0.1-0.6c0-0.5,0.2-0.8,0.6-1
	c0.2-0.1,0.5-0.2,0.9-0.2h4v-1.1h-4c-0.6,0-1.1,0.1-1.5,0.3c-0.6,0.3-0.9,0.9-0.9,1.8c0,0.4,0.1,0.8,0.2,1.1s0.4,0.6,0.8,0.9h-1v1
	L67,110.7L67,110.7z M60.5,114.9c0,0.9,0.3,1.6,0.9,2.1c0.6,0.5,1.5,0.8,2.5,0.8c1,0,1.8-0.3,2.4-0.8c0.6-0.5,0.9-1.2,0.9-2
	c0-1-0.3-1.8-1-2.3s-1.5-0.7-2.5-0.7s-1.8,0.3-2.4,0.8C60.8,113.4,60.5,114.1,60.5,114.9 M66.3,114.9c0,0.6-0.2,1.1-0.7,1.4
	s-1,0.4-1.7,0.4c-0.7,0-1.3-0.1-1.8-0.4s-0.7-0.8-0.7-1.4c0-0.7,0.3-1.2,0.9-1.5c0.4-0.2,0.8-0.3,1.4-0.3s1.2,0.1,1.8,0.4
	C66,113.7,66.3,114.2,66.3,114.9 M67,118.9h-8.6v1.1H67V118.9z M67,121.6h-8.6v1.1H67V121.6z M59.5,124.3h-1.1v1.1h1.2L59.5,124.3
	L59.5,124.3z M67,124.3h-6.3v1.1H67V124.3z M67,135.4v-1.1h-3.4c-0.8,0-1.4-0.2-1.7-0.5c-0.3-0.3-0.5-0.7-0.5-1.1
	c0-0.4,0.1-0.7,0.4-0.9c0.2-0.1,0.5-0.2,0.9-0.2H67v-1.1h-3.7c-0.6,0-1.1-0.1-1.4-0.4c-0.3-0.3-0.4-0.7-0.4-1.1
	c0-0.3,0.1-0.6,0.2-0.8c0.2-0.2,0.4-0.3,0.9-0.3H67v-1.1h-4.2c-0.6,0-1,0.1-1.3,0.2c-0.6,0.3-0.9,0.9-0.9,1.7c0,0.4,0.1,0.8,0.2,1.1
	c0.2,0.3,0.4,0.6,0.7,0.8c-0.3,0.1-0.5,0.3-0.6,0.5c-0.2,0.3-0.4,0.7-0.4,1.2c0,0.4,0.1,0.8,0.4,1.2c0.1,0.2,0.4,0.4,0.7,0.7h-0.9v1
	H67V135.4z M58.2,137.3c1.1,0.7,2,1.2,2.6,1.4c0.9,0.4,1.9,0.5,3.1,0.5c0.3,0,0.6,0,1-0.1c0.7-0.1,1.3-0.2,1.9-0.5
	c0.4-0.2,0.8-0.3,1-0.4c0.2-0.1,0.8-0.5,1.7-1.1v-0.7c-1.1,0.6-1.9,1-2.5,1.2c-0.9,0.3-2,0.5-3.1,0.5c-1.1,0-2.1-0.1-3-0.4
	c-0.6-0.2-1.4-0.6-2.6-1.2v0.8H58.2z M65,149.1c0.6,0,1.1-0.2,1.6-0.6c0.4-0.4,0.6-1.1,0.6-2s-0.2-1.5-0.6-2
	c-0.4-0.4-0.9-0.6-1.4-0.6c-0.6,0-1,0.2-1.3,0.6c-0.2,0.3-0.4,0.8-0.5,1.6l-0.2,0.7c-0.1,0.3-0.2,0.5-0.3,0.7
	c-0.2,0.3-0.4,0.4-0.7,0.4c-0.2,0-0.4-0.1-0.6-0.3c-0.2-0.2-0.2-0.5-0.2-0.9c0-0.6,0.1-1,0.4-1.3c0.2-0.2,0.4-0.2,0.6-0.3v-1
	c-0.4,0-0.8,0.1-1.1,0.4c-0.6,0.4-0.8,1.1-0.8,2.1c0,0.7,0.2,1.3,0.6,1.7c0.4,0.4,0.8,0.6,1.4,0.6c0.5,0,0.9-0.2,1.2-0.7
	c0.2-0.3,0.3-0.7,0.4-1.2l0.2-0.9c0.1-0.5,0.2-0.8,0.3-0.9c0.1-0.2,0.3-0.4,0.6-0.4c0.4,0,0.6,0.2,0.8,0.5s0.3,0.7,0.3,1.1
	c0,0.7-0.2,1.1-0.5,1.4c-0.2,0.1-0.5,0.2-0.8,0.3C65,148.1,65,149.1,65,149.1z M67,154.7v-1h-2.4l-0.8-0.9l3.2-2v-1.3l-4,2.6
	l-2.3-2.4v1.3l2.7,2.7h-5v1L67,154.7L67,154.7z M60.5,158.3c0,0.8,0.3,1.5,0.9,2c0.6,0.5,1.5,0.8,2.6,0.8c0.9,0,1.6-0.2,2.2-0.7
	s0.9-1.1,0.9-2c0-0.7-0.2-1.3-0.6-1.8s-1-0.8-1.8-0.9v1c0.5,0.1,0.8,0.3,1.1,0.5c0.3,0.3,0.4,0.6,0.4,1c0,0.6-0.2,1-0.6,1.3
	s-1,0.4-1.6,0.4c-0.6,0-1.1-0.1-1.6-0.3c-0.7-0.3-1-0.8-1-1.4c0-0.5,0.1-0.8,0.4-1.1c0.3-0.2,0.6-0.4,1-0.4v-1
	c-0.8,0.1-1.4,0.4-1.8,0.8C60.7,157,60.5,157.6,60.5,158.3 M60.5,164.8c0,0.9,0.3,1.6,0.9,2.1c0.6,0.5,1.5,0.8,2.5,0.8
	c1,0,1.8-0.3,2.4-0.8c0.6-0.5,0.9-1.2,0.9-2c0-1-0.3-1.8-1-2.3s-1.5-0.7-2.5-0.7s-1.8,0.3-2.4,0.8C60.8,163.4,60.5,164,60.5,164.8
	 M66.3,164.9c0,0.6-0.2,1.1-0.7,1.4c-0.4,0.3-1,0.4-1.7,0.4c-0.7,0-1.3-0.1-1.8-0.4c-0.5-0.3-0.7-0.8-0.7-1.4c0-0.7,0.3-1.2,0.9-1.5
	c0.4-0.2,0.8-0.3,1.4-0.3s1.2,0.1,1.8,0.4C66,163.7,66.3,164.2,66.3,164.9 M67,168.9h-8.6v1.1H67V168.9z M67,177.9v-3.7
	c0-1.1-0.3-2-1-2.5c-0.4-0.4-1-0.5-1.5-0.5c-0.7,0-1.2,0.2-1.6,0.6c-0.2,0.2-0.4,0.5-0.6,1c-0.2-0.3-0.3-0.5-0.5-0.7
	c-0.3-0.3-0.8-0.5-1.3-0.5s-0.9,0.1-1.2,0.4c-0.6,0.4-0.9,1.2-0.9,2.2v3.7H67z M66,176.8h-3v-2.3c0-0.5,0.1-0.9,0.2-1.2
	c0.2-0.6,0.7-0.8,1.3-0.8c0.4,0,0.7,0.1,0.9,0.3c0.4,0.3,0.6,0.8,0.6,1.5V176.8z M62,176.8h-2.7v-2.1c0-0.5,0.1-0.9,0.2-1.2
	c0.2-0.5,0.6-0.7,1.1-0.7c0.6,0,0.9,0.2,1.2,0.7c0.1,0.3,0.2,0.7,0.2,1.2V176.8z"/>
</svg>
