<svg class="toyplot-canvas-Canvas" height="249.60000000000002px" id="t4f230d0e025c4dd993fb5a3ed6119899" preserveAspectRatio="xMidYMid meet" style="background-color:transparent;fill:rgb(16.1%,15.3%,14.1%);fill-opacity:1.0;font-family:Helvetica;font-size:12px;opacity:1.0;stroke:rgb(16.1%,15.3%,14.1%);stroke-opacity:1.0;stroke-width:1.0" viewBox="0 0 384.0 249.60000000000002" width="384.0px" xmlns="http://www.w3.org/2000/svg" xmlns:toyplot="http://www.sandia.gov/toyplot" xmlns:xlink="http://www.w3.org/1999/xlink"><g class="toyplot-coordinates-Cartesian" id="t6e452510f9b54b0eac1ff6b6a189df04"><clipPath id="t2f259e12326c4cfb97761e91a0e35b8f"><rect height="220.60000000000002" width="352.0" x="31.0" y="-4.0" /></clipPath><g clip-path="url(#t2f259e12326c4cfb97761e91a0e35b8f)"><g class="toyplot-mark-Plot" id="tc8a6181b709b4fec8639270e9e92afd9" style="fill:none"><g class="toyplot-Series"><path d="M 41.0 130.00727272727275 L 68.666666666666657 115.82850000000002 L 96.333333333333343 124.96694444444445 L 124.0 131.20206896551727 L 151.66666666666666 114.65833333333336 L 179.33333333333334 118.58675000000002 L 207.0 109.14943181818182 L 234.66666666666669 102.67805555555557 L 262.33333333333331 97.409772727272738 L 290.0 88.856521739130429 L 317.66666666666669 76.639857142857139 L 345.33333333333331 68.533192307692303 L 373.0 58.90825000000001" style="stroke:rgb(40%,76.1%,64.7%);stroke-opacity:1.0;stroke-width:2.0" /></g></g><g class="toyplot-mark-Plot" id="t0e248776d182405688a7b1de375d9c6a" style="fill:none"><g class="toyplot-Series"><path d="M 41.0 80.222000000000008 L 68.666666666666657 62.418750000000003 L 96.333333333333343 96.269999999999996 L 124.0 86.240000000000009 L 151.66666666666666 71.194999999999993 L 179.33333333333334 83.732500000000002 L 207.0 84.986250000000027 L 234.66666666666669 59.91125000000001 L 262.33333333333331 81.475750000000005 L 290.0 53.893250000000009 L 317.66666666666669 19.59622222222221 L 345.33333333333331 48.251375000000017 L 373.0 6.0" style="stroke:rgb(98.8%,55.3%,38.4%);stroke-opacity:1.0;stroke-width:2.0" /></g></g><g class="toyplot-mark-Plot" id="t1412c66db15e40d0904774a3bc0ad874" style="fill:none"><g class="toyplot-Series"><path d="M 41.0 78.717500000000015 L 68.666666666666657 58.657499999999999 L 96.333333333333343 85.237000000000009 L 124.0 106.30000000000001 L 151.66666666666666 59.493333333333347 L 179.33333333333334 68.6875 L 207.0 66.180000000000021 L 234.66666666666669 69.10541666666667 L 262.33333333333331 57.71718750000003 L 290.0 41.355749999999986 L 317.66666666666669 29.069000000000003 L 345.33333333333331 41.31395833333336 L 373.0 31.632222222222246" style="stroke:rgb(55.3%,62.7%,79.6%);stroke-opacity:1.0;stroke-width:2.0" /></g></g></g><g class="toyplot-coordinates-Axis" id="t04f6fe4ce21f4fe9b49332cfa78f4ef5" transform="translate(41.0,206.6)translate(0,10.0)"><line style="" x1="0" x2="332.0" y1="0" y2="0" /><g><text style="font-weight:normal;stroke:none;text-anchor:middle" transform="translate(0.0,6)translate(0,7.5)"><tspan style="font-size:10.0px">1970</tspan></text><text style="font-weight:normal;stroke:none;text-anchor:middle" transform="translate(110.66666666666666,6)translate(0,7.5)"><tspan style="font-size:10.0px">1974</tspan></text><text style="font-weight:normal;stroke:none;text-anchor:middle" transform="translate(221.33333333333331,6)translate(0,7.5)"><tspan style="font-size:10.0px">1978</tspan></text><text style="font-weight:normal;stroke:none;text-anchor:middle" transform="translate(332.0,6)translate(0,7.5)"><tspan style="font-size:10.0px">1982</tspan></text></g><text style="font-weight:bold;stroke:none;text-anchor:middle" transform="translate(166.0,22)translate(0,9.0)"><tspan style="font-size:12.0px">Model Year</tspan></text><g class="toyplot-coordinates-Axis-coordinates" style="visibility:hidden" transform=""><line style="stroke:rgb(43.9%,50.2%,56.5%);stroke-opacity:1.0;stroke-width:1.0" x1="0" x2="0" y1="-3.0" y2="4.5" /><text style="alignment-baseline:alphabetic;fill:rgb(43.9%,50.2%,56.5%);fill-opacity:1.0;font-size:10px;font-weight:normal;stroke:none;text-anchor:middle" x="0" y="-6" /></g></g><g class="toyplot-coordinates-Axis" id="t22d340754c164ca69ef9fe00f1d61fb9" transform="translate(41.0,206.6)rotate(-90.0)translate(0,-10.0)"><line style="" x1="75.39793103448277" x2="200.60000000000002" y1="0" y2="0" /><g><text style="font-weight:normal;stroke:none;text-anchor:middle" transform="translate(0.0,-6)"><tspan style="font-size:10.0px">0</tspan></text><text style="font-weight:normal;stroke:none;text-anchor:middle" transform="translate(50.150000000000006,-6)"><tspan style="font-size:10.0px">10</tspan></text><text style="font-weight:normal;stroke:none;text-anchor:middle" transform="translate(100.30000000000001,-6)"><tspan style="font-size:10.0px">20</tspan></text><text style="font-weight:normal;stroke:none;text-anchor:middle" transform="translate(150.45000000000002,-6)"><tspan style="font-size:10.0px">30</tspan></text><text style="font-weight:normal;stroke:none;text-anchor:middle" transform="translate(200.60000000000002,-6)"><tspan style="font-size:10.0px">40</tspan></text></g><text style="font-weight:bold;stroke:none;text-anchor:middle" transform="translate(100.30000000000001,-22)"><tspan style="font-size:12.0px">Average MPG</tspan></text><g class="toyplot-coordinates-Axis-coordinates" style="visibility:hidden" transform=""><line style="stroke:rgb(43.9%,50.2%,56.5%);stroke-opacity:1.0;stroke-width:1.0" x1="0" x2="0" y1="3.0" y2="-4.5" /><text style="alignment-baseline:hanging;fill:rgb(43.9%,50.2%,56.5%);fill-opacity:1.0;font-size:10px;font-weight:normal;stroke:none;text-anchor:middle" x="0" y="6" /></g></g></g><rect class="toyplot-mark-Legend" height="72.0" id="t9c24e6c0017b4793b3b376b4abb5548a" style="fill:none;stroke:none" width="96.0" x="288.0" y="129.60000000000002" /><g style="stroke:rgb(98.8%,55.3%,38.4%);stroke-opacity:1.0;stroke-width:2.0"><line transform="rotate(45, 303.33333333333331, 144.93333333333337)" x1="303.33333333333331" x2="303.33333333333331" y1="139.60000000000002" y2="150.2666666666667" /></g><text style="stroke:none" transform="translate(318.66666666666669,144.93333333333337)translate(0,3.375)"><tspan style="font-size:12.0px">Europe</tspan></text><g style="stroke:rgb(55.3%,62.7%,79.6%);stroke-opacity:1.0;stroke-width:2.0"><line transform="rotate(45, 303.33333333333331, 165.60000000000002)" x1="303.33333333333331" x2="303.33333333333331" y1="160.26666666666668" y2="170.93333333333337" /></g><text style="stroke:none" transform="translate(318.66666666666669,165.60000000000002)translate(0,3.375)"><tspan style="font-size:12.0px">Japan</tspan></text><g style="stroke:rgb(40%,76.1%,64.7%);stroke-opacity:1.0;stroke-width:2.0"><line transform="rotate(45, 303.33333333333331, 186.2666666666667)" x1="303.33333333333331" x2="303.33333333333331" y1="180.93333333333337" y2="191.60000000000005" /></g><text style="stroke:none" transform="translate(318.66666666666669,186.2666666666667)translate(0,3.375)"><tspan style="font-size:12.0px">USA</tspan></text></svg>