<?xml version="1.0" encoding="utf-8"?>
<!-- Generator: Adobe Illustrator 17.1.0, SVG Export Plug-In . SVG Version: 6.00 Build 0)  -->
<!DOCTYPE svg PUBLIC "-//W3C//DTD SVG 1.1//EN" "http://www.w3.org/Graphics/SVG/1.1/DTD/svg11.dtd">
<svg version="1.1" id="Layer_1" xmlns="http://www.w3.org/2000/svg" xmlns:xlink="http://www.w3.org/1999/xlink" x="0px" y="0px"
	 viewBox="0 0 612 216" enable-background="new 0 0 612 216" xml:space="preserve">
<g>
	<rect x="217" fill="#FFFFFF" width="395" height="216"/>
	<rect x="237" y="15" fill="#5B9AD4" width="297" height="22"/>
	<rect x="237" y="40" fill="#EC7D31" width="274" height="21"/>
	<rect x="237" y="65" fill="#A4A4A4" width="281" height="21"/>
	<rect x="237" y="89" fill="#FFBF00" width="319" height="22"/>
	<rect x="237" y="114" fill="#4472C3" width="351" height="22"/>
	<rect x="237" y="139" fill="#70AC47" width="342" height="22"/>
	<rect x="237" y="164" fill="#255E90" width="319" height="21"/>
	
		<line fill="none" stroke="#D8D8D8" stroke-width="0.999" stroke-linejoin="round" stroke-miterlimit="10" x1="237.5" y1="13.5" x2="237.5" y2="187.4"/>
	<g>
		<path fill="#595959" d="M243,198.2l0.1-0.1l0-0.1l-0.1-0.1l-0.2,0l-0.2,0l-0.1,0l-0.1,0.1l-0.1,0.1l-5.3,7.6l-0.1,0.1l0,0.1
			l0.1,0.1l0.2,0l0.2,0l0.1,0l0.1,0l0.1-0.1L243,198.2z M243,204.4c0,0.2-0.1,0.3-0.1,0.4c-0.1,0.1-0.1,0.2-0.2,0.3
			c-0.1,0.1-0.2,0.1-0.4,0.1c-0.1,0-0.3,0-0.4-0.1c-0.1,0-0.2-0.1-0.3-0.2c-0.1-0.1-0.1-0.2-0.2-0.4c0-0.2-0.1-0.4-0.1-0.7
			c0-0.2,0-0.4,0-0.6c0-0.2,0.1-0.3,0.1-0.4c0.1-0.1,0.1-0.2,0.2-0.2c0.1-0.1,0.2-0.1,0.4-0.1c0.1,0,0.3,0,0.4,0.1
			c0.1,0.1,0.2,0.1,0.3,0.3c0.1,0.1,0.1,0.3,0.1,0.4c0,0.2,0,0.4,0,0.6C243,204,243,204.2,243,204.4 M243.8,203.1
			c-0.1-0.2-0.1-0.4-0.3-0.6c-0.1-0.2-0.3-0.3-0.5-0.4c-0.2-0.1-0.5-0.2-0.8-0.2c-0.3,0-0.5,0.1-0.7,0.2c-0.2,0.1-0.4,0.2-0.5,0.4
			c-0.1,0.2-0.2,0.4-0.3,0.6c-0.1,0.2-0.1,0.5-0.1,0.8c0,0.3,0,0.6,0.1,0.8c0.1,0.2,0.2,0.5,0.3,0.6c0.1,0.2,0.3,0.3,0.5,0.4
			c0.2,0.1,0.4,0.1,0.7,0.1c0.3,0,0.5,0,0.7-0.1c0.2-0.1,0.4-0.2,0.5-0.4c0.1-0.2,0.2-0.4,0.3-0.6c0.1-0.2,0.1-0.5,0.1-0.8
			C243.9,203.5,243.8,203.3,243.8,203.1 M238.5,200.6c0,0.2-0.1,0.3-0.1,0.4c-0.1,0.1-0.1,0.2-0.2,0.3c-0.1,0.1-0.2,0.1-0.4,0.1
			c-0.1,0-0.3,0-0.4-0.1c-0.1,0-0.2-0.1-0.3-0.2c-0.1-0.1-0.1-0.2-0.2-0.4c0-0.2-0.1-0.4-0.1-0.7c0-0.2,0-0.4,0-0.6s0.1-0.3,0.1-0.4
			c0.1-0.1,0.1-0.2,0.2-0.2c0.1-0.1,0.2-0.1,0.4-0.1c0.1,0,0.3,0,0.4,0.1c0.1,0.1,0.2,0.1,0.3,0.3c0.1,0.1,0.1,0.3,0.1,0.4
			c0,0.2,0,0.4,0,0.6C238.6,200.3,238.6,200.4,238.5,200.6 M239.3,199.3c0-0.2-0.1-0.4-0.3-0.6c-0.1-0.2-0.3-0.3-0.5-0.4
			s-0.5-0.2-0.8-0.2c-0.3,0-0.5,0.1-0.7,0.2c-0.2,0.1-0.4,0.2-0.5,0.4c-0.1,0.2-0.2,0.4-0.3,0.6c-0.1,0.2-0.1,0.5-0.1,0.8
			c0,0.3,0,0.6,0.1,0.8c0.1,0.2,0.2,0.5,0.3,0.6s0.3,0.3,0.5,0.4s0.4,0.1,0.7,0.1c0.3,0,0.5,0,0.7-0.1c0.2-0.1,0.4-0.2,0.5-0.4
			c0.1-0.2,0.2-0.4,0.3-0.6c0.1-0.2,0.1-0.5,0.1-0.8C239.4,199.8,239.4,199.5,239.3,199.3 M234.3,202.8c0,0.3,0,0.5-0.1,0.7
			c0,0.2-0.1,0.4-0.2,0.6c-0.1,0.2-0.2,0.3-0.3,0.5s-0.3,0.2-0.4,0.3c-0.2,0.1-0.4,0.1-0.6,0.1c-0.3,0-0.5-0.1-0.7-0.2
			c-0.2-0.1-0.4-0.3-0.5-0.5s-0.2-0.6-0.3-1c-0.1-0.4-0.1-0.9-0.1-1.4c0-0.4,0-0.8,0.1-1.2c0-0.4,0.1-0.7,0.2-1
			c0.1-0.3,0.3-0.5,0.5-0.6s0.5-0.2,0.8-0.2c0.2,0,0.4,0,0.5,0.1c0.2,0,0.3,0.1,0.4,0.2c0.1,0.1,0.2,0.2,0.3,0.4
			c0.1,0.2,0.2,0.4,0.2,0.6c0.1,0.2,0.1,0.5,0.1,0.8c0,0.3,0,0.6,0,1C234.3,202.3,234.3,202.5,234.3,202.8 M235.2,200.3
			c-0.1-0.5-0.2-0.9-0.4-1.2c-0.2-0.3-0.5-0.6-0.8-0.8s-0.7-0.3-1.2-0.3c-0.5,0-0.9,0.1-1.3,0.3c-0.3,0.2-0.6,0.5-0.8,0.8
			c-0.2,0.3-0.4,0.8-0.5,1.2c-0.1,0.5-0.1,1-0.1,1.6c0,0.6,0,1.2,0.1,1.7c0.1,0.5,0.2,0.9,0.4,1.2c0.2,0.3,0.5,0.6,0.8,0.8
			s0.7,0.3,1.2,0.3c0.5,0,0.9-0.1,1.3-0.3c0.3-0.2,0.6-0.5,0.8-0.8c0.2-0.3,0.4-0.8,0.5-1.2c0.1-0.5,0.1-1,0.1-1.6
			C235.4,201.3,235.3,200.7,235.2,200.3"/>
		<path fill="#595959" d="M330.3,198.2l0.1-0.1l0-0.1l-0.1-0.1l-0.2,0l-0.2,0l-0.1,0l-0.1,0.1l-0.1,0.1l-5.3,7.6l-0.1,0.1l0,0.1
			l0.1,0.1l0.2,0l0.2,0l0.1,0l0.1,0l0.1-0.1L330.3,198.2z M330.3,204.4c0,0.2-0.1,0.3-0.1,0.4c-0.1,0.1-0.1,0.2-0.2,0.3
			c-0.1,0.1-0.2,0.1-0.4,0.1c-0.1,0-0.3,0-0.4-0.1c-0.1,0-0.2-0.1-0.3-0.2c-0.1-0.1-0.1-0.2-0.2-0.4c0-0.2-0.1-0.4-0.1-0.7
			c0-0.2,0-0.4,0-0.6s0.1-0.3,0.1-0.4c0.1-0.1,0.1-0.2,0.2-0.2c0.1-0.1,0.2-0.1,0.4-0.1c0.1,0,0.3,0,0.4,0.1
			c0.1,0.1,0.2,0.1,0.3,0.3c0.1,0.1,0.1,0.3,0.1,0.4c0,0.2,0,0.4,0,0.6C330.3,204,330.3,204.2,330.3,204.4 M331.1,203.1
			c-0.1-0.2-0.1-0.4-0.3-0.6c-0.1-0.2-0.3-0.3-0.5-0.4c-0.2-0.1-0.5-0.2-0.8-0.2c-0.3,0-0.5,0.1-0.7,0.2c-0.2,0.1-0.4,0.2-0.5,0.4
			c-0.1,0.2-0.2,0.4-0.3,0.6c-0.1,0.2-0.1,0.5-0.1,0.8c0,0.3,0,0.6,0.1,0.8c0.1,0.2,0.2,0.5,0.3,0.6s0.3,0.3,0.5,0.4
			s0.4,0.1,0.7,0.1c0.3,0,0.5,0,0.7-0.1c0.2-0.1,0.4-0.2,0.5-0.4c0.1-0.2,0.2-0.4,0.3-0.6c0.1-0.2,0.1-0.5,0.1-0.8
			C331.1,203.5,331.1,203.3,331.1,203.1 M325.8,200.6c0,0.2-0.1,0.3-0.1,0.4c-0.1,0.1-0.1,0.2-0.2,0.3c-0.1,0.1-0.2,0.1-0.4,0.1
			c-0.1,0-0.3,0-0.4-0.1c-0.1,0-0.2-0.1-0.3-0.2c-0.1-0.1-0.1-0.2-0.2-0.4c0-0.2-0.1-0.4-0.1-0.7c0-0.2,0-0.4,0-0.6s0.1-0.3,0.1-0.4
			c0.1-0.1,0.1-0.2,0.2-0.2c0.1-0.1,0.2-0.1,0.4-0.1c0.1,0,0.3,0,0.4,0.1c0.1,0.1,0.2,0.1,0.3,0.3c0.1,0.1,0.1,0.3,0.1,0.4
			c0,0.2,0,0.4,0,0.6C325.8,200.3,325.8,200.4,325.8,200.6 M326.6,199.3c-0.1-0.2-0.1-0.4-0.3-0.6c-0.1-0.2-0.3-0.3-0.5-0.4
			c-0.2-0.1-0.5-0.2-0.8-0.2c-0.3,0-0.5,0.1-0.7,0.2c-0.2,0.1-0.4,0.2-0.5,0.4c-0.1,0.2-0.2,0.4-0.3,0.6c-0.1,0.2-0.1,0.5-0.1,0.8
			c0,0.3,0,0.6,0.1,0.8c0.1,0.2,0.2,0.5,0.3,0.6c0.1,0.2,0.3,0.3,0.5,0.4s0.4,0.1,0.7,0.1c0.3,0,0.5,0,0.7-0.1
			c0.2-0.1,0.4-0.2,0.5-0.4c0.1-0.2,0.2-0.4,0.3-0.6c0.1-0.2,0.1-0.5,0.1-0.8C326.7,199.8,326.6,199.5,326.6,199.3 M320.7,203.2
			h-2.5l2.5-4.2h0V203.2z M322.7,203.3l-0.2-0.1h-0.9v-4.8l0-0.1l-0.1-0.1c-0.1,0-0.1,0-0.2,0c-0.1,0-0.2,0-0.3,0
			c-0.1,0-0.2,0-0.3,0l-0.2,0l-0.1,0.1l-0.1,0.1l-2.7,4.6l-0.1,0.1l0,0.1l0,0.2l0,0.2c0,0.1,0,0.2,0,0.2l0.1,0.1l0.1,0.1l0.1,0h3.1
			v1.6l0,0.1l0.1,0.1l0.1,0c0.1,0,0.1,0,0.2,0c0.1,0,0.2,0,0.2,0l0.2,0l0.1-0.1l0-0.1V204h0.9l0.2-0.1c0-0.1,0.1-0.2,0.1-0.3
			C322.7,203.4,322.7,203.3,322.7,203.3"/>
		<path fill="#595959" d="M417.6,198.2l0.1-0.1l0-0.1l-0.1-0.1l-0.2,0l-0.2,0l-0.1,0l-0.1,0.1l-0.1,0.1l-5.3,7.6l-0.1,0.1l0,0.1
			l0.1,0.1l0.2,0l0.2,0l0.1,0l0.1,0l0.1-0.1L417.6,198.2z M417.6,204.4c0,0.2-0.1,0.3-0.1,0.4c-0.1,0.1-0.1,0.2-0.2,0.3
			c-0.1,0.1-0.2,0.1-0.4,0.1c-0.1,0-0.3,0-0.4-0.1c-0.1,0-0.2-0.1-0.3-0.2c-0.1-0.1-0.1-0.2-0.2-0.4c0-0.2-0.1-0.4-0.1-0.7
			c0-0.2,0-0.4,0-0.6c0-0.2,0.1-0.3,0.1-0.4c0.1-0.1,0.1-0.2,0.2-0.2c0.1-0.1,0.2-0.1,0.4-0.1c0.1,0,0.3,0,0.4,0.1
			c0.1,0.1,0.2,0.1,0.3,0.3c0.1,0.1,0.1,0.3,0.1,0.4c0,0.2,0,0.4,0,0.6C417.6,204,417.6,204.2,417.6,204.4 M418.3,203.1
			c-0.1-0.2-0.1-0.4-0.3-0.6c-0.1-0.2-0.3-0.3-0.5-0.4c-0.2-0.1-0.5-0.2-0.8-0.2c-0.3,0-0.5,0.1-0.7,0.2c-0.2,0.1-0.4,0.2-0.5,0.4
			c-0.1,0.2-0.2,0.4-0.3,0.6c-0.1,0.2-0.1,0.5-0.1,0.8c0,0.3,0,0.6,0.1,0.8c0.1,0.2,0.2,0.5,0.3,0.6s0.3,0.3,0.5,0.4
			c0.2,0.1,0.4,0.1,0.7,0.1c0.3,0,0.5,0,0.7-0.1c0.2-0.1,0.4-0.2,0.5-0.4c0.1-0.2,0.2-0.4,0.3-0.6c0.1-0.2,0.1-0.5,0.1-0.8
			C418.4,203.5,418.4,203.3,418.3,203.1 M413.1,200.6c0,0.2-0.1,0.3-0.1,0.4c-0.1,0.1-0.1,0.2-0.2,0.3c-0.1,0.1-0.2,0.1-0.4,0.1
			c-0.1,0-0.3,0-0.4-0.1c-0.1,0-0.2-0.1-0.3-0.2c-0.1-0.1-0.1-0.2-0.2-0.4c0-0.2-0.1-0.4-0.1-0.7c0-0.2,0-0.4,0-0.6
			c0-0.2,0.1-0.3,0.1-0.4c0.1-0.1,0.1-0.2,0.2-0.2c0.1-0.1,0.2-0.1,0.4-0.1c0.1,0,0.3,0,0.4,0.1c0.1,0.1,0.2,0.1,0.3,0.3
			c0.1,0.1,0.1,0.3,0.1,0.4c0,0.2,0,0.4,0,0.6C413.1,200.3,413.1,200.4,413.1,200.6 M413.9,199.3c-0.1-0.2-0.1-0.4-0.3-0.6
			c-0.1-0.2-0.3-0.3-0.5-0.4c-0.2-0.1-0.5-0.2-0.8-0.2c-0.3,0-0.5,0.1-0.7,0.2c-0.2,0.1-0.4,0.2-0.5,0.4c-0.1,0.2-0.2,0.4-0.3,0.6
			c-0.1,0.2-0.1,0.5-0.1,0.8c0,0.3,0,0.6,0.1,0.8c0.1,0.2,0.2,0.5,0.3,0.6c0.1,0.2,0.3,0.3,0.5,0.4c0.2,0.1,0.4,0.1,0.7,0.1
			c0.3,0,0.5,0,0.7-0.1c0.2-0.1,0.4-0.2,0.5-0.4c0.1-0.2,0.2-0.4,0.3-0.6c0.1-0.2,0.1-0.5,0.1-0.8
			C413.9,199.8,413.9,199.5,413.9,199.3 M408.5,204.7c-0.3,0.2-0.6,0.3-1.1,0.3c-0.5,0-0.9-0.1-1.2-0.3s-0.4-0.5-0.4-0.9
			c0-0.2,0-0.3,0.1-0.5c0.1-0.1,0.2-0.3,0.3-0.4c0.1-0.1,0.3-0.3,0.5-0.4c0.2-0.1,0.4-0.2,0.6-0.4c0.3,0.1,0.5,0.3,0.7,0.4
			c0.2,0.1,0.4,0.2,0.5,0.4c0.1,0.1,0.2,0.3,0.3,0.4c0.1,0.1,0.1,0.3,0.1,0.5C408.8,204.2,408.7,204.5,408.5,204.7 M408.3,200.7
			c-0.2,0.2-0.5,0.5-0.9,0.7c-0.2-0.1-0.4-0.2-0.6-0.3c-0.2-0.1-0.3-0.2-0.4-0.3c-0.1-0.1-0.2-0.2-0.2-0.4c-0.1-0.1-0.1-0.3-0.1-0.4
			c0-0.3,0.1-0.6,0.3-0.8c0.2-0.2,0.5-0.3,1-0.3c0.2,0,0.4,0,0.6,0.1c0.2,0,0.3,0.1,0.4,0.2c0.1,0.1,0.2,0.2,0.2,0.3
			c0.1,0.1,0.1,0.3,0.1,0.4C408.6,200.2,408.5,200.5,408.3,200.7 M409.7,203.2c-0.1-0.2-0.2-0.4-0.3-0.5c-0.1-0.2-0.3-0.3-0.5-0.5
			c-0.2-0.1-0.5-0.3-0.7-0.4c0.2-0.1,0.4-0.3,0.6-0.4c0.2-0.1,0.3-0.3,0.5-0.5s0.2-0.3,0.3-0.5c0.1-0.2,0.1-0.4,0.1-0.6
			c0-0.2,0-0.5-0.1-0.7c-0.1-0.2-0.2-0.4-0.4-0.6c-0.2-0.2-0.4-0.3-0.7-0.4c-0.3-0.1-0.6-0.1-1-0.1c-0.4,0-0.7,0.1-1,0.1
			c-0.3,0.1-0.5,0.2-0.7,0.4c-0.2,0.2-0.3,0.4-0.4,0.6c-0.1,0.2-0.1,0.5-0.1,0.7c0,0.2,0,0.4,0.1,0.6c0.1,0.2,0.2,0.3,0.3,0.5
			c0.1,0.2,0.3,0.3,0.5,0.4c0.2,0.1,0.4,0.3,0.6,0.4c-0.3,0.1-0.5,0.3-0.7,0.4c-0.2,0.1-0.4,0.3-0.5,0.5s-0.3,0.4-0.3,0.6
			c-0.1,0.2-0.1,0.4-0.1,0.7c0,0.3,0.1,0.6,0.2,0.8c0.1,0.2,0.3,0.4,0.5,0.6c0.2,0.2,0.5,0.3,0.8,0.4c0.3,0.1,0.7,0.1,1,0.1
			c0.4,0,0.8,0,1.1-0.1c0.3-0.1,0.6-0.2,0.8-0.4c0.2-0.2,0.4-0.4,0.5-0.6c0.1-0.3,0.2-0.5,0.2-0.9
			C409.9,203.6,409.8,203.4,409.7,203.2"/>
		<path fill="#595959" d="M507.9,198.2l0.1-0.1l0-0.1l-0.1-0.1l-0.2,0l-0.2,0l-0.1,0l-0.1,0l-0.1,0.1l-5.3,7.6l-0.1,0.1l0,0.1
			l0.1,0.1l0.2,0l0.2,0l0.1,0l0.1,0l0.1-0.1L507.9,198.2z M507.8,204.4c0,0.2-0.1,0.3-0.1,0.4c-0.1,0.1-0.1,0.2-0.2,0.3
			c-0.1,0.1-0.2,0.1-0.4,0.1c-0.1,0-0.3,0-0.4-0.1c-0.1,0-0.2-0.1-0.3-0.2c-0.1-0.1-0.1-0.2-0.2-0.4c0-0.2-0.1-0.4-0.1-0.7
			c0-0.2,0-0.4,0-0.6c0-0.2,0.1-0.3,0.1-0.4c0.1-0.1,0.1-0.2,0.2-0.2c0.1-0.1,0.2-0.1,0.4-0.1c0.1,0,0.3,0,0.4,0.1
			c0.1,0.1,0.2,0.1,0.3,0.3c0.1,0.1,0.1,0.3,0.1,0.4s0,0.4,0,0.6C507.9,204,507.9,204.2,507.8,204.4 M508.6,203.1
			c-0.1-0.2-0.1-0.4-0.3-0.6c-0.1-0.2-0.3-0.3-0.5-0.4c-0.2-0.1-0.5-0.2-0.8-0.2c-0.3,0-0.5,0.1-0.7,0.2c-0.2,0.1-0.4,0.2-0.5,0.4
			c-0.1,0.2-0.2,0.4-0.3,0.6c-0.1,0.2-0.1,0.5-0.1,0.8c0,0.3,0,0.6,0.1,0.8c0.1,0.2,0.2,0.5,0.3,0.6c0.1,0.2,0.3,0.3,0.5,0.4
			c0.2,0.1,0.4,0.1,0.7,0.1c0.3,0,0.5,0,0.7-0.1c0.2-0.1,0.4-0.2,0.5-0.4c0.1-0.2,0.2-0.4,0.3-0.6c0.1-0.2,0.1-0.5,0.1-0.8
			C508.7,203.5,508.7,203.3,508.6,203.1 M503.4,200.6c0,0.2-0.1,0.3-0.1,0.4c-0.1,0.1-0.1,0.2-0.2,0.3c-0.1,0.1-0.2,0.1-0.4,0.1
			c-0.1,0-0.3,0-0.4-0.1c-0.1,0-0.2-0.1-0.3-0.2c-0.1-0.1-0.1-0.2-0.2-0.4c0-0.2-0.1-0.4-0.1-0.7c0-0.2,0-0.4,0-0.6
			c0-0.2,0.1-0.3,0.1-0.4c0.1-0.1,0.1-0.2,0.2-0.2c0.1-0.1,0.2-0.1,0.4-0.1c0.1,0,0.3,0,0.4,0.1c0.1,0.1,0.2,0.1,0.3,0.3
			c0.1,0.1,0.1,0.3,0.1,0.4c0,0.2,0,0.4,0,0.6C503.4,200.3,503.4,200.4,503.4,200.6 M504.2,199.3c0-0.2-0.1-0.4-0.3-0.6
			c-0.1-0.2-0.3-0.3-0.5-0.4c-0.2-0.1-0.5-0.2-0.8-0.2c-0.3,0-0.5,0.1-0.7,0.2c-0.2,0.1-0.4,0.2-0.5,0.4c-0.1,0.2-0.2,0.4-0.3,0.6
			c-0.1,0.2-0.1,0.5-0.1,0.8c0,0.3,0,0.6,0.1,0.8c0.1,0.2,0.2,0.5,0.3,0.6c0.1,0.2,0.3,0.3,0.5,0.4s0.4,0.1,0.7,0.1
			c0.3,0,0.5,0,0.7-0.1c0.2-0.1,0.4-0.2,0.5-0.4c0.1-0.2,0.2-0.4,0.3-0.6c0.1-0.2,0.1-0.5,0.1-0.8
			C504.2,199.8,504.2,199.5,504.2,199.3 M499.9,205.1l0-0.1l-0.1-0.1l-0.1,0h-3.3l1.2-1.3c0.4-0.4,0.8-0.8,1-1.2
			c0.3-0.3,0.5-0.7,0.6-0.9c0.1-0.3,0.2-0.5,0.3-0.8c0-0.2,0.1-0.5,0.1-0.7c0-0.3,0-0.5-0.1-0.8c-0.1-0.2-0.2-0.4-0.4-0.6
			c-0.2-0.2-0.4-0.3-0.7-0.4c-0.3-0.1-0.6-0.2-1-0.2c-0.2,0-0.5,0-0.7,0.1c-0.2,0-0.4,0.1-0.6,0.2c-0.2,0.1-0.3,0.1-0.4,0.2
			c-0.1,0.1-0.2,0.1-0.2,0.2l-0.1,0.1l0,0.1l0,0.1l0,0.2l0,0.2l0,0.1l0.1,0.1l0.1,0c0,0,0.1,0,0.2-0.1c0.1-0.1,0.2-0.1,0.4-0.2
			c0.1-0.1,0.3-0.2,0.5-0.2c0.2-0.1,0.4-0.1,0.6-0.1c0.2,0,0.4,0,0.5,0.1c0.2,0.1,0.3,0.2,0.4,0.3c0.1,0.1,0.2,0.2,0.2,0.4
			c0.1,0.1,0.1,0.3,0.1,0.5s0,0.3-0.1,0.5c0,0.2-0.1,0.4-0.2,0.6c-0.1,0.2-0.3,0.5-0.5,0.8c-0.2,0.3-0.5,0.6-0.8,1l-1.5,1.6
			l-0.1,0.1l-0.1,0.1l0,0.2l0,0.2l0,0.2l0.1,0.1l0.1,0.1l0.1,0h4.2l0.1,0l0.1-0.1l0-0.1l0-0.2L499.9,205.1z M494,205.1l0-0.1
			l-0.1-0.1l-0.1,0h-1.4v-6.7l0-0.1l-0.1-0.1l-0.1,0c-0.1,0-0.1,0-0.2,0l-0.2,0l-0.1,0l-0.1,0l-0.1,0l-1.7,1.1l-0.1,0.1l-0.1,0.1
			l0,0.1l0,0.2l0,0.2l0.1,0.1l0.1,0l0.2-0.1l1.5-0.9v5.8h-1.6l-0.1,0l-0.1,0.1l0,0.1l0,0.2l0,0.2l0,0.1l0.1,0.1l0.1,0h4l0.1,0
			l0.1-0.1l0-0.1l0-0.2L494,205.1z"/>
		<path fill="#595959" d="M595.1,198.2l0.1-0.1l0-0.1l-0.1-0.1l-0.2,0l-0.2,0l-0.1,0l-0.1,0l-0.1,0.1l-5.3,7.6l-0.1,0.1l0,0.1
			l0.1,0.1l0.2,0l0.2,0l0.1,0l0.1,0l0.1-0.1L595.1,198.2z M595.1,204.4c0,0.2-0.1,0.3-0.1,0.4c-0.1,0.1-0.1,0.2-0.2,0.3
			c-0.1,0.1-0.2,0.1-0.4,0.1c-0.1,0-0.3,0-0.4-0.1c-0.1,0-0.2-0.1-0.3-0.2c-0.1-0.1-0.1-0.2-0.2-0.4c0-0.2-0.1-0.4-0.1-0.7
			c0-0.2,0-0.4,0-0.6c0-0.2,0.1-0.3,0.1-0.4c0.1-0.1,0.1-0.2,0.2-0.2c0.1-0.1,0.2-0.1,0.4-0.1c0.1,0,0.3,0,0.4,0.1
			c0.1,0.1,0.2,0.1,0.3,0.3c0.1,0.1,0.1,0.3,0.1,0.4s0,0.4,0,0.6C595.2,204,595.1,204.2,595.1,204.4 M595.9,203.1
			c-0.1-0.2-0.1-0.4-0.3-0.6c-0.1-0.2-0.3-0.3-0.5-0.4c-0.2-0.1-0.5-0.2-0.8-0.2c-0.3,0-0.5,0.1-0.7,0.2c-0.2,0.1-0.4,0.2-0.5,0.4
			c-0.1,0.2-0.2,0.4-0.3,0.6c-0.1,0.2-0.1,0.5-0.1,0.8c0,0.3,0,0.6,0.1,0.8c0.1,0.2,0.2,0.5,0.3,0.6c0.1,0.2,0.3,0.3,0.5,0.4
			s0.4,0.1,0.7,0.1c0.3,0,0.5,0,0.7-0.1c0.2-0.1,0.4-0.2,0.5-0.4c0.1-0.2,0.2-0.4,0.3-0.6c0.1-0.2,0.1-0.5,0.1-0.8
			C596,203.5,596,203.3,595.9,203.1 M590.6,200.6c0,0.2-0.1,0.3-0.1,0.4c-0.1,0.1-0.1,0.2-0.2,0.3c-0.1,0.1-0.2,0.1-0.4,0.1
			c-0.1,0-0.3,0-0.4-0.1c-0.1,0-0.2-0.1-0.3-0.2c-0.1-0.1-0.1-0.2-0.2-0.4c0-0.2-0.1-0.4-0.1-0.7c0-0.2,0-0.4,0-0.6
			c0-0.2,0.1-0.3,0.1-0.4c0.1-0.1,0.1-0.2,0.2-0.2c0.1-0.1,0.2-0.1,0.4-0.1c0.1,0,0.3,0,0.4,0.1c0.1,0.1,0.2,0.1,0.3,0.3
			c0.1,0.1,0.1,0.3,0.1,0.4c0,0.2,0,0.4,0,0.6C590.7,200.3,590.7,200.4,590.6,200.6 M591.4,199.3c-0.1-0.2-0.1-0.4-0.3-0.6
			c-0.1-0.2-0.3-0.3-0.5-0.4c-0.2-0.1-0.5-0.2-0.8-0.2c-0.3,0-0.5,0.1-0.7,0.2c-0.2,0.1-0.4,0.2-0.5,0.4c-0.1,0.2-0.2,0.4-0.3,0.6
			c-0.1,0.2-0.1,0.5-0.1,0.8c0,0.3,0,0.6,0.1,0.8c0.1,0.2,0.2,0.5,0.3,0.6c0.1,0.2,0.3,0.3,0.5,0.4s0.4,0.1,0.7,0.1
			c0.3,0,0.5,0,0.7-0.1c0.2-0.1,0.4-0.2,0.5-0.4c0.1-0.2,0.2-0.4,0.3-0.6c0.1-0.2,0.1-0.5,0.1-0.8
			C591.5,199.8,591.5,199.5,591.4,199.3 M586.3,204c-0.1,0.2-0.1,0.4-0.3,0.5c-0.1,0.2-0.3,0.3-0.5,0.4c-0.2,0.1-0.4,0.1-0.7,0.1
			c-0.2,0-0.5,0-0.6-0.1c-0.2-0.1-0.3-0.2-0.5-0.4s-0.2-0.5-0.3-0.8c-0.1-0.3-0.1-0.8-0.1-1.3c0.1-0.1,0.2-0.1,0.3-0.2
			c0.1-0.1,0.3-0.1,0.4-0.2c0.1,0,0.3-0.1,0.4-0.1c0.1,0,0.3,0,0.4,0c0.3,0,0.5,0,0.6,0.1c0.2,0.1,0.3,0.2,0.4,0.3
			c0.1,0.1,0.2,0.3,0.2,0.5c0,0.2,0.1,0.4,0.1,0.6C586.4,203.6,586.4,203.8,586.3,204 M587.3,202.4c-0.1-0.3-0.2-0.5-0.4-0.7
			c-0.2-0.2-0.4-0.4-0.7-0.5c-0.3-0.1-0.6-0.2-1-0.2c-0.2,0-0.4,0-0.5,0c-0.2,0-0.3,0.1-0.5,0.1c-0.2,0-0.3,0.1-0.4,0.2
			c-0.1,0.1-0.2,0.1-0.3,0.2c0-0.4,0.1-0.7,0.1-1c0.1-0.3,0.2-0.6,0.4-0.9s0.4-0.4,0.6-0.6c0.3-0.1,0.6-0.2,0.9-0.2
			c0.2,0,0.4,0,0.5,0c0.2,0,0.3,0.1,0.4,0.1c0.1,0,0.2,0.1,0.3,0.1l0.2,0l0.1,0l0.1-0.1l0-0.1l0-0.2l0-0.1l0-0.1l0-0.1l-0.1-0.1
			l-0.2-0.1c-0.1,0-0.2-0.1-0.3-0.1c-0.1,0-0.3-0.1-0.4-0.1c-0.1,0-0.3,0-0.4,0c-0.4,0-0.8,0.1-1.1,0.2c-0.3,0.1-0.6,0.3-0.8,0.5
			c-0.2,0.2-0.4,0.4-0.6,0.7c-0.2,0.3-0.3,0.6-0.4,0.9c-0.1,0.3-0.2,0.6-0.2,1c0,0.3-0.1,0.7-0.1,1c0,0.4,0,0.7,0,1
			c0,0.3,0.1,0.6,0.2,0.9c0.1,0.3,0.2,0.5,0.3,0.7s0.3,0.4,0.4,0.5c0.2,0.1,0.4,0.3,0.6,0.3c0.2,0.1,0.5,0.1,0.8,0.1
			c0.4,0,0.8-0.1,1.1-0.2c0.3-0.1,0.6-0.3,0.8-0.6c0.2-0.2,0.4-0.5,0.5-0.8c0.1-0.3,0.2-0.6,0.2-1
			C587.4,203,587.4,202.7,587.3,202.4 M581.2,205.1l0-0.1l-0.1-0.1l-0.1,0h-1.4v-6.7l0-0.1l-0.1-0.1l-0.1,0c-0.1,0-0.1,0-0.2,0
			l-0.2,0l-0.1,0l-0.1,0l-0.1,0l-1.7,1.1l-0.1,0.1l-0.1,0.1l0,0.1l0,0.2l0,0.2l0.1,0.1l0.1,0l0.2-0.1l1.5-0.9v5.8h-1.6l-0.1,0
			l-0.1,0.1l0,0.1l0,0.2l0,0.2l0,0.1l0.1,0.1l0.1,0h4l0.1,0l0.1-0.1l0-0.1l0-0.2L581.2,205.1z"/>
	</g>
</g>
<g>
	<g>
		<path fill="#5B9BD5" d="M111.8,9c28.6,0,55.8,12.4,74.6,33.9L111.8,108V9z"/>
		<path fill="none" stroke="#FFFFFF" stroke-width="2" stroke-linejoin="round" stroke-miterlimit="10" d="M111.8,9
			c28.6,0,55.8,12.4,74.6,33.9L111.8,108V9z"/>
	</g>
	<g>
		<path fill="#ED7D31" d="M186.5,43c17.3,19.8,26.1,45.8,24.2,72l-98.8-7L186.5,43z"/>
		<path fill="none" stroke="#FFFFFF" stroke-width="2" stroke-linejoin="round" stroke-miterlimit="10" d="M186.5,43
			c17.3,19.8,26.1,45.8,24.2,72l-98.8-7L186.5,43z"/>
	</g>
	<g>
		<path fill="#A5A5A5" d="M210.6,115c-1.9,27-14.8,52.1-35.6,69.3L111.8,108L210.6,115z"/>
		<path fill="none" stroke="#FFFFFF" stroke-width="2" stroke-linejoin="round" stroke-miterlimit="10" d="M210.6,115
			c-1.9,27-14.8,52.1-35.6,69.3L111.8,108L210.6,115z"/>
	</g>
	<g>
		<path fill="#FFC000" d="M175,184.3c-23.8,19.7-55.4,27.1-85.5,20.1l22.4-96.4L175,184.3z"/>
		<path fill="none" stroke="#FFFFFF" stroke-width="2" stroke-linejoin="round" stroke-miterlimit="10" d="M175,184.3
			c-23.8,19.7-55.4,27.1-85.5,20.1l22.4-96.4L175,184.3z"/>
	</g>
	<g>
		<path fill="#4472C4" d="M89.5,204.5c-33.2-7.7-60.1-32-71.2-64.2l93.6-32.3L89.5,204.5z"/>
		<path fill="none" stroke="#FFFFFF" stroke-width="2" stroke-linejoin="round" stroke-miterlimit="10" d="M89.5,204.5
			c-33.2-7.7-60.1-32-71.2-64.2l93.6-32.3L89.5,204.5z"/>
	</g>
	<g>
		<path fill="#70AD47" d="M18.2,140.3C7.5,109,13,74.4,33.1,48l78.7,60L18.2,140.3z"/>
		<path fill="none" stroke="#FFFFFF" stroke-width="2" stroke-linejoin="round" stroke-miterlimit="10" d="M18.2,140.3
			C7.5,109,13,74.4,33.1,48l78.7,60L18.2,140.3z"/>
	</g>
	<g>
		<path fill="#255E91" d="M33.1,48C51.9,23.4,81,9,111.8,9v99L33.1,48z"/>
		<path fill="none" stroke="#FFFFFF" stroke-width="2" stroke-linejoin="round" stroke-miterlimit="10" d="M33.1,48
			C51.9,23.4,81,9,111.8,9v99L33.1,48z"/>
	</g>
</g>
</svg>
