<?xml version="1.0" encoding="utf-8"?>
<!-- Generator: Adobe Illustrator 17.1.0, SVG Export Plug-In . SVG Version: 6.00 Build 0)  -->
<!DOCTYPE svg PUBLIC "-//W3C//DTD SVG 1.1//EN" "http://www.w3.org/Graphics/SVG/1.1/DTD/svg11.dtd">
<svg version="1.1" id="Layer_1" xmlns="http://www.w3.org/2000/svg" xmlns:xlink="http://www.w3.org/1999/xlink" x="0px" y="0px"
	 viewBox="0 0 198 198" enable-background="new 0 0 198 198" xml:space="preserve">
<g>
	<path fill="#5B9BD5" d="M99.1,3.6c27.4,0,53.5,11.9,71.6,32.5L99.1,98.6V3.6z"/>
	<path fill="none" stroke="#FFFFFF" stroke-width="2" stroke-linejoin="round" stroke-miterlimit="10" d="M99.1,3.6
		c27.4,0,53.5,11.9,71.6,32.5L99.1,98.6V3.6z"/>
</g>
<g>
	<path fill="#ED7D31" d="M170.7,36.2c16.6,19,25,43.9,23.2,69.1l-94.8-6.7L170.7,36.2z"/>
	<path fill="none" stroke="#FFFFFF" stroke-width="2" stroke-linejoin="round" stroke-miterlimit="10" d="M170.7,36.2
		c16.6,19,25,43.9,23.2,69.1l-94.8-6.7L170.7,36.2z"/>
</g>
<g>
	<path fill="#A5A5A5" d="M193.9,105.3c-1.8,25.9-14.2,50-34.2,66.5L99.1,98.6L193.9,105.3z"/>
	<path fill="none" stroke="#FFFFFF" stroke-width="2" stroke-linejoin="round" stroke-miterlimit="10" d="M193.9,105.3
		c-1.8,25.9-14.2,50-34.2,66.5L99.1,98.6L193.9,105.3z"/>
</g>
<g>
	<path fill="#FFC000" d="M159.7,171.8c-22.8,18.9-53.2,26-82,19.3l21.5-92.5L159.7,171.8z"/>
	<path fill="none" stroke="#FFFFFF" stroke-width="2" stroke-linejoin="round" stroke-miterlimit="10" d="M159.7,171.8
		c-22.8,18.9-53.2,26-82,19.3l21.5-92.5L159.7,171.8z"/>
</g>
<g>
	<path fill="#4472C4" d="M77.7,191.2c-31.9-7.4-57.7-30.7-68.3-61.6l89.8-31L77.7,191.2z"/>
	<path fill="none" stroke="#FFFFFF" stroke-width="2" stroke-linejoin="round" stroke-miterlimit="10" d="M77.7,191.2
		c-31.9-7.4-57.7-30.7-68.3-61.6l89.8-31L77.7,191.2z"/>
</g>
<g>
	<path fill="#70AD47" d="M9.3,129.6C-1,99.5,4.3,66.3,23.6,41l75.5,57.6L9.3,129.6z"/>
	<path fill="none" stroke="#FFFFFF" stroke-width="2" stroke-linejoin="round" stroke-miterlimit="10" d="M9.3,129.6
		C-1,99.5,4.3,66.3,23.6,41l75.5,57.6L9.3,129.6z"/>
</g>
<g>
	<path fill="#255E91" d="M23.6,41c18-23.6,45.9-37.4,75.5-37.4v95L23.6,41z"/>
	<path fill="none" stroke="#FFFFFF" stroke-width="2" stroke-linejoin="round" stroke-miterlimit="10" d="M23.6,41
		c18-23.6,45.9-37.4,75.5-37.4l0,95L23.6,41z"/>
</g>
</svg>
