<svg class="toyplot-canvas-Canvas" height="249.60000000000002px" id="t88ca2480ef6a497584be4316bb480b02" preserveAspectRatio="xMidYMid meet" style="background-color:transparent;fill:rgb(16.1%,15.3%,14.1%);fill-opacity:1.0;font-family:Helvetica;font-size:12px;opacity:1.0;stroke:rgb(16.1%,15.3%,14.1%);stroke-opacity:1.0;stroke-width:1.0" viewBox="0 0 384.0 249.60000000000002" width="384.0px" xmlns="http://www.w3.org/2000/svg" xmlns:toyplot="http://www.sandia.gov/toyplot" xmlns:xlink="http://www.w3.org/1999/xlink"><g class="toyplot-coordinates-Cartesian" id="t38cc825f2991481f8853032b42c0579d"><clipPath id="t15fc746c947548d681ef188b2ab71072"><rect height="169.60000000000002" width="304.0" x="40.0" y="40.0" /></clipPath><g clip-path="url(#t15fc746c947548d681ef188b2ab71072)"><g class="toyplot-mark-Plot" id="t87dd06f5924a4bfabb52c1605956b0ba" style="fill:none"><g class="toyplot-Series"><path d="M 50.0 154.72 L 52.898780833569603 165.77739130434784 L 61.434079954635664 161.87478260869565 L 61.836688403742556 160.57391304347826 L 62.883470371420472 157.32173913043479 L 64.654947547490792 165.12695652173915 L 64.654947547490792 165.12695652173915 L 65.057555996597671 156.67130434782612 L 65.057555996597671 160.57391304347826 L 67.070598242132121 161.87478260869565 L 67.070598242132121 153.41913043478263 L 67.795293450524525 160.57391304347826 L 67.875815140345907 169.68000000000004 L 67.956336830167274 157.32173913043479 L 68.681032038559692 159.27304347826089 L 69.083640487666571 156.0208695652174 L 70.452509214629998 167.72869565217391 L 71.096682733201021 157.97217391304352 L 74.317550326056136 147.56521739130437 L 75.122767224269921 153.41913043478263 L 76.089027502126442 154.0695652173913 L 76.089027502126442 154.0695652173913 L 76.330592571590586 148.86608695652174 L 76.733201020697479 154.0695652173913 L 77.135809469804371 156.0208695652174 L 77.135809469804371 169.68000000000004 L 77.53841791891125 154.0695652173913 L 78.182591437482273 156.0208695652174 L 78.343634817125036 156.0208695652174 L 78.343634817125036 156.0208695652174 L 78.585199886589166 160.57391304347826 L 78.746243266231929 155.3704347826087 L 79.148851715338822 157.32173913043479 L 79.148851715338822 157.32173913043479 L 79.5514601644457 151.46782608695653 L 79.954068613552593 168.37913043478264 L 79.954068613552593 156.0208695652174 L 79.954068613552593 165.77739130434784 L 79.954068613552593 155.3704347826087 L 80.356677062659486 153.41913043478263 L 80.356677062659486 154.0695652173913 L 80.759285511766379 156.0208695652174 L 81.161893960873272 156.0208695652174 L 81.403459030337388 159.92347826086959 L 82.691806067479448 157.32173913043479 L 82.772327757300815 157.32173913043479 L 83.174936206407708 155.3704347826087 L 83.980153104621493 165.77739130434784 L 84.785370002835265 157.32173913043479 L 84.785370002835265 155.3704347826087 L 85.187978451942172 159.27304347826089 L 85.268500141763539 158.62260869565219 L 86.395803799262836 150.16695652173914 L 86.395803799262836 156.0208695652174 L 86.798412248369715 154.0695652173913 L 87.120499007655226 154.0695652173913 L 87.201020697476622 145.61391304347828 L 88.006237595690394 168.37913043478264 L 89.214062943011058 142.36173913043478 L 89.858236461582081 150.81739130434786 L 90.019279841224829 157.32173913043479 L 90.019279841224829 157.32173913043479 L 90.824496739438615 154.0695652173913 L 91.066061808902759 141.06086956521742 L 91.146583498724127 141.06086956521742 L 91.227105188545508 154.0695652173913 L 91.227105188545508 158.62260869565219 L 91.227105188545508 150.81739130434786 L 91.307626878366875 147.56521739130437 L 91.629713637652401 142.36173913043478 L 91.629713637652401 165.77739130434784 L 91.629713637652401 142.36173913043478 L 91.629713637652401 154.72 L 92.03232208675928 155.3704347826087 L 92.757017295151684 150.16695652173914 L 92.837538984973065 156.0208695652174 L 93.240147434079944 154.0695652173913 L 93.642755883186851 147.56521739130437 L 93.642755883186851 155.3704347826087 L 93.642755883186851 150.81739130434786 L 93.884320952650981 150.81739130434786 L 94.04536433229373 142.36173913043478 L 94.367451091579255 147.56521739130437 L 94.367451091579255 160.57391304347826 L 94.931102920328897 150.81739130434786 L 96.299971647292324 148.86608695652174 L 96.380493337113705 154.72 L 96.461015026935073 148.86608695652174 L 96.461015026935073 151.46782608695653 L 97.266231925148844 154.0695652173913 L 97.427275304791607 145.61391304347828 L 97.668840374255737 150.81739130434786 L 98.07144882336263 150.81739130434786 L 98.474057272469508 158.62260869565219 L 98.796144031755034 145.61391304347828 L 98.876665721576416 143.66260869565218 L 98.876665721576416 146.91478260869567 L 99.118230791040531 153.41913043478263 L 99.359795860504676 143.66260869565218 L 99.520839240147438 137.80869565217392 L 99.681882619790201 150.81739130434786 L 100.0039693790757 126.10086956521739 L 100.88970796711085 154.0695652173913 L 100.97022965693225 150.81739130434786 L 101.61440317550327 164.47652173913048 L 101.69492486532462 148.21565217391304 L 102.41962007371704 141.06086956521742 L 102.50014176353841 150.81739130434786 L 102.50014176353841 150.81739130434786 L 102.50014176353841 141.06086956521742 L 103.54692373121634 137.80869565217392 L 103.62744542103772 142.36173913043478 L 104.35214062943011 139.75999999999999 L 104.51318400907287 152.76869565217393 L 104.91579245817975 144.96347826086958 L 105.31840090728664 148.86608695652174 L 105.31840090728664 136.50782608695653 L 105.31840090728664 137.15826086956523 L 106.12361780550043 144.31304347826088 L 107.73405160192799 136.50782608695653 L 108.13666005103487 168.37913043478264 L 109.34448539835554 150.81739130434786 L 110.9549191947831 144.96347826086958 L 111.11596257442585 137.80869565217392 L 111.35752764388999 137.80869565217392 L 111.67961440317551 138.45913043478259 L 111.76013609299687 157.32173913043479 L 112.16274454210378 144.96347826086958 L 112.64587468103204 139.10956521739132 L 112.96796144031755 143.66260869565218 L 112.96796144031755 142.36173913043478 L 113.45109157924581 152.76869565217393 L 113.77317833853132 136.50782608695653 L 114.01474340799547 152.76869565217393 L 114.01474340799547 141.06086956521742 L 114.981003685852 134.55652173913046 L 115.78622058406579 141.06086956521742 L 116.1083073433513 139.75999999999999 L 117.47717607031471 147.56521739130437 L 118.52395803799263 143.66260869565218 L 119.16813155656365 130.0034782608696 L 120.53700028352708 136.50782608695653 L 120.61752197334846 144.96347826086958 L 121.42273887156223 142.36173913043478 L 121.90586901049051 136.50782608695653 L 122.30847745959738 150.16695652173914 L 122.6305642188829 137.80869565217392 L 123.43578111709668 144.96347826086958 L 124.80464984406009 150.81739130434786 L 124.80464984406009 150.81739130434786 L 125.04621491352424 136.50782608695653 L 125.93195350155941 141.06086956521742 L 126.2540402608449 137.80869565217392 L 126.6566487099518 152.76869565217393 L 127.22030053870144 139.75999999999999 L 127.46186560816557 144.31304347826088 L 128.02551743691521 140.41043478260872 L 128.26708250637935 139.75999999999999 L 128.42812588602212 144.31304347826088 L 128.83073433512902 148.86608695652174 L 129.07229940459314 124.80000000000001 L 129.47490785370002 128.05217391304348 L 129.8775163028069 142.36173913043478 L 130.68273320102071 134.55652173913046 L 131.08534165012759 139.75999999999999 L 131.48795009923447 148.21565217391304 L 132.21264530762687 134.55652173913046 L 132.29316699744825 151.46782608695653 L 132.29316699744825 144.96347826086958 L 132.61525375673378 145.61391304347828 L 132.69577544655516 142.36173913043478 L 133.33994896512615 141.06086956521742 L 134.3062092429827 128.05217391304348 L 134.70881769208958 137.15826086956523 L 135.11142614119649 147.56521739130437 L 135.11142614119649 141.06086956521742 L 135.19194783101787 124.80000000000001 L 135.27246952083925 143.01217391304348 L 135.75559965976748 141.06086956521742 L 137.04394669690956 137.80869565217392 L 137.52707683583782 124.80000000000001 L 137.68812021548058 137.15826086956523 L 138.41281542387298 141.06086956521742 L 139.13751063226539 128.05217391304348 L 139.13751063226539 142.36173913043478 L 139.13751063226539 146.264347826087 L 139.54011908137227 128.05217391304348 L 140.34533597958605 141.06086956521742 L 140.74794442869296 142.36173913043478 L 141.15055287779984 131.30434782608697 L 141.9557697760136 141.71130434782611 L 143.48568188261979 136.50782608695653 L 144.69350722994045 134.55652173913046 L 144.77402891976183 143.66260869565218 L 145.17663736886874 124.80000000000001 L 145.57924581797562 131.30434782608697 L 146.14289764672526 120.24695652173914 L 146.78707116529628 136.50782608695653 L 147.99489651261695 132.60521739130434 L 148.23646158208109 137.80869565217392 L 148.39750496172385 126.75130434782608 L 150.0079387581514 144.31304347826088 L 150.81315565636518 139.75999999999999 L 151.05472072582933 126.75130434782608 L 151.21576410547209 142.36173913043478 L 152.82619790189963 142.36173913043478 L 153.63141480011342 124.14956521739133 L 153.71193648993477 134.55652173913046 L 153.95350155939892 137.80869565217392 L 154.43663169832718 113.74260869565218 L 154.7587184576127 134.55652173913046 L 156.04706549475475 129.35304347826087 L 156.04706549475475 121.54782608695653 L 156.28863056421886 126.75130434782608 L 157.25489084207541 128.05217391304348 L 157.25489084207541 134.55652173913046 L 157.25489084207541 135.85739130434786 L 157.65749929118232 156.0208695652174 L 157.65749929118232 141.06086956521742 L 158.22115111993196 142.36173913043478 L 158.62375956903884 128.05217391304348 L 158.86532463850298 144.31304347826088 L 159.99262829600227 143.01217391304348 L 160.39523674510914 136.50782608695653 L 160.8783668840374 144.31304347826088 L 161.92514885171533 141.06086956521742 L 162.64984406010774 146.91478260869567 L 162.89140912957185 144.31304347826088 L 163.37453926850014 142.36173913043478 L 164.82392968528495 128.05217391304348 L 166.51488517153388 142.36173913043478 L 167.32010206974766 144.31304347826088 L 168.52792741706833 141.06086956521742 L 168.60844910688968 53.252173913043471 L 169.89679614403175 137.80869565217392 L 171.42670825063794 131.30434782608697 L 172.87609866742275 142.36173913043478 L 172.95662035724411 118.29565217391306 L 173.76183725545789 133.25565217391306 L 174.1644457045648 137.80869565217392 L 174.40601077402891 152.76869565217393 L 174.56705415367168 150.16695652173914 L 175.29174936206408 115.69391304347828 L 176.98270484831301 153.41913043478263 L 177.22426991777715 137.80869565217392 L 178.19053019563367 109.18956521739132 L 178.59313864474058 141.06086956521742 L 178.67366033456196 141.06086956521742 L 179.47887723277572 128.05217391304348 L 180.20357244116812 147.56521739130437 L 180.44513751063226 134.55652173913046 L 181.41139778848878 124.80000000000001 L 181.81400623759569 156.0208695652174 L 182.941309895095 137.80869565217392 L 183.02183158491636 141.06086956521742 L 183.42444003402323 142.36173913043478 L 184.06861355259429 134.55652173913046 L 184.39070031187978 134.55652173913046 L 184.87383045080804 134.55652173913046 L 186.00113410830735 142.36173913043478 L 188.17521973348454 134.55652173913046 L 188.73887156223418 134.55652173913046 L 190.10774028919761 131.30434782608697 L 190.67139211794728 128.05217391304348 L 191.07400056705416 128.05217391304348 L 192.28182591437482 131.30434782608697 L 192.3623476041962 141.06086956521742 L 193.81173802098104 102.03478260869565 L 194.69747660901618 121.54782608695653 L 194.69747660901618 113.0921739130435 L 195.10008505812306 128.05217391304348 L 195.50269350722994 141.06086956521742 L 195.90530195633684 105.28695652173913 L 195.90530195633684 131.30434782608697 L 196.30791040544375 134.55652173913046 L 196.46895378508646 152.76869565217393 L 196.54947547490787 102.03478260869565 L 196.79104054437198 102.03478260869565 L 197.03260561383615 131.30434782608697 L 197.51573575276439 92.27826086956523 L 197.83782251204988 108.53913043478262 L 198.6430394102637 131.30434782608697 L 199.12616954919196 144.31304347826088 L 202.26651545222569 115.04347826086958 L 203.55486248936771 128.05217391304348 L 203.95747093847461 135.85739130434786 L 204.36007938758152 149.51652173913044 L 204.7626878366884 131.30434782608697 L 207.01729515168699 89.026086956521752 L 207.58094698043664 109.18956521739132 L 207.90303373972213 148.86608695652174 L 210.39920612418484 118.29565217391306 L 210.72129288347034 95.530434782608694 L 211.04337964275589 131.30434782608697 L 211.60703147150551 128.05217391304348 L 212.41224836971932 134.55652173913046 L 212.57329174936206 128.05217391304348 L 213.62007371703999 128.05217391304348 L 214.10320385596825 134.55652173913046 L 215.14998582364615 82.521739130434781 L 215.79415934221717 102.03478260869565 L 215.79415934221717 102.03478260869565 L 217.48511482846612 92.27826086956523 L 220.06180890275024 131.30434782608697 L 220.06180890275024 115.69391304347828 L 220.46441735185709 128.05217391304348 L 220.86702580096397 108.53913043478262 L 222.47745959739154 102.03478260869565 L 222.9605897363198 102.03478260869565 L 224.24893677346185 102.03478260869565 L 224.57102353274738 134.55652173913046 L 224.8931102920329 137.80869565217392 L 227.71136943578111 121.54782608695653 L 227.79189112560249 85.77391304347826 L 228.51658633399489 111.7913043478261 L 229.32180323220868 115.04347826086958 L 230.12702013042247 76.017391304347825 L 231.73745392685001 115.04347826086958 L 232.54267082506379 105.28695652173913 L 233.50893110292031 102.03478260869565 L 233.91153955202722 131.30434782608697 L 234.15310462149134 118.29565217391306 L 234.71675645024101 128.05217391304348 L 237.37397221434651 102.03478260869565 L 237.37397221434651 102.03478260869565 L 238.58179756166714 109.84000000000002 L 239.14544939041681 121.54782608695653 L 241.23901332577262 105.28695652173913 L 245.58718457612704 110.4904347826087 L 246.55344485398356 107.23826086956524 L 246.63396654380495 105.28695652173913 L 247.03657499291185 128.05217391304348 L 248.40544371987525 102.03478260869565 L 248.6470087893394 108.53913043478262 L 248.80805216898216 105.28695652173913 L 249.93535582648144 102.03478260869565 L 250.09639920612418 115.04347826086958 L 250.25744258576697 85.77391304347826 L 252.59257159058689 100.08347826086957 L 253.07570172951517 102.03478260869565 L 253.47831017862208 105.28695652173913 L 253.55883186844341 108.53913043478262 L 254.60561383612136 100.08347826086957 L 255.4913524241565 89.026086956521752 L 257.50439466969095 102.03478260869565 L 259.03430677629711 92.27826086956523 L 259.5174369152254 100.73391304347827 L 259.5174369152254 108.53913043478262 L 259.92004536433228 82.521739130434781 L 261.28891409129574 102.03478260869565 L 262.89934788772331 102.03478260869565 L 264.26821661468671 92.27826086956523 L 264.59030337397223 50.0 L 265.87865041111428 108.53913043478262 L 265.95917210093563 115.04347826086958 L 267.32804082789903 59.756521739130427 L 268.37482279557702 76.017391304347825 L 269.18003969379072 102.68521739130435 L 269.66316983271901 70.813913043478266 L 270.70995180039694 56.504347826086956 L 271.19308193932522 98.782608695652186 L 271.43464700878934 96.831304347826091 L 272.48142897646727 69.513043478260883 L 272.8035157357528 82.521739130434781 L 272.9645591153955 63.008695652173927 L 273.20612418485962 85.77391304347826 L 276.18542670825065 76.017391304347825 L 276.42699177771476 53.252173913043471 L 277.63481712503545 105.28695652173913 L 278.9231641621775 95.530434782608694 L 279.00368585199885 102.03478260869565 L 279.56733768074855 102.03478260869565 L 279.56733768074855 85.77391304347826 L 282.30507513467535 102.03478260869565 L 282.38559682449676 82.521739130434781 L 282.62716189396087 98.782608695652186 L 291.7261128437766 59.756521739130427 L 293.17550326056136 64.309565217391309 L 293.57811170966829 108.53913043478262 L 294.86645874681028 89.026086956521752 L 295.10802381627451 103.33565217391305 L 295.99376240430962 89.026086956521752 L 298.4899347887723 102.03478260869565 L 301.1471505528778 74.06608695652173 L 301.38871562234192 59.756521739130427 L 302.27445421037709 89.026086956521752 L 315.15792458179754 90.977391304347833 L 318.78140062375957 53.252173913043471 L 318.86192231358098 70.813913043478266 L 319.10348738304509 82.521739130434781 L 322.48539835554294 102.03478260869565 L 334.0 85.77391304347826" style="stroke:rgb(40%,76.1%,64.7%);stroke-opacity:1.0;stroke-width:2.0" /></g></g></g><g class="toyplot-coordinates-Axis" id="tba545db15d584bb395d58b7faa42c717" transform="translate(50.0,199.6)translate(0,10.0)"><line style="" x1="0" x2="284.0" y1="0" y2="0" /><g><text style="font-weight:normal;stroke:none;text-anchor:middle" transform="translate(31.161893960873265,6)translate(0,7.5)"><tspan style="font-size:10.0px">2000</tspan></text><text style="font-weight:normal;stroke:none;text-anchor:middle" transform="translate(111.6835837822512,6)translate(0,7.5)"><tspan style="font-size:10.0px">3000</tspan></text><text style="font-weight:normal;stroke:none;text-anchor:middle" transform="translate(192.20527360362917,6)translate(0,7.5)"><tspan style="font-size:10.0px">4000</tspan></text><text style="font-weight:normal;stroke:none;text-anchor:middle" transform="translate(272.7269634250071,6)translate(0,7.5)"><tspan style="font-size:10.0px">5000</tspan></text></g><text style="font-weight:bold;stroke:none;text-anchor:middle" transform="translate(142.0,22)translate(0,9.0)"><tspan style="font-size:12.0px">Weight</tspan></text><g class="toyplot-coordinates-Axis-coordinates" style="visibility:hidden" transform=""><line style="stroke:rgb(43.9%,50.2%,56.5%);stroke-opacity:1.0;stroke-width:1.0" x1="0" x2="0" y1="-3.0" y2="4.5" /><text style="alignment-baseline:alphabetic;fill:rgb(43.9%,50.2%,56.5%);fill-opacity:1.0;font-size:10px;font-weight:normal;stroke:none;text-anchor:middle" x="0" y="-6" /></g></g><g class="toyplot-coordinates-Axis" id="t4d1e4342e87747d386af465104fe1af6" transform="translate(50.0,199.6)rotate(-90.0)translate(0,-10.0)"><line style="" x1="29.920000000000005" x2="149.60000000000002" y1="0" y2="0" /><g><text style="font-weight:normal;stroke:none;text-anchor:middle" transform="translate(0.0,-6)"><tspan style="font-size:10.0px">0</tspan></text><text style="font-weight:normal;stroke:none;text-anchor:middle" transform="translate(65.04347826086958,-6)"><tspan style="font-size:10.0px">100</tspan></text><text style="font-weight:normal;stroke:none;text-anchor:middle" transform="translate(130.08695652173915,-6)"><tspan style="font-size:10.0px">200</tspan></text></g><text style="font-weight:bold;stroke:none;text-anchor:middle" transform="translate(74.800000000000011,-22)"><tspan style="font-size:12.0px">Horsepower</tspan></text><g class="toyplot-coordinates-Axis-coordinates" style="visibility:hidden" transform=""><line style="stroke:rgb(43.9%,50.2%,56.5%);stroke-opacity:1.0;stroke-width:1.0" x1="0" x2="0" y1="3.0" y2="-4.5" /><text style="alignment-baseline:hanging;fill:rgb(43.9%,50.2%,56.5%);fill-opacity:1.0;font-size:10px;font-weight:normal;stroke:none;text-anchor:middle" x="0" y="6" /></g></g></g></svg>