<svg class="toyplot-canvas-Canvas" height="249.60000000000002px" id="t5b9eaf750077463298a34a325fd9fc9e" preserveAspectRatio="xMidYMid meet" style="background-color:transparent;fill:rgb(16.1%,15.3%,14.1%);fill-opacity:1.0;font-family:Helvetica;font-size:12px;opacity:1.0;stroke:rgb(16.1%,15.3%,14.1%);stroke-opacity:1.0;stroke-width:1.0" viewBox="0 0 384.0 249.60000000000002" width="384.0px" xmlns="http://www.w3.org/2000/svg" xmlns:toyplot="http://www.sandia.gov/toyplot" xmlns:xlink="http://www.w3.org/1999/xlink"><g class="toyplot-coordinates-Cartesian" id="t749747d597124e4fa75ee462c2358eb3"><clipPath id="ta0ced385f96947daa7df3b11d4880c33"><rect height="222.60000000000002" width="360.0" x="31.0" y="-7.0" /></clipPath><g clip-path="url(#ta0ced385f96947daa7df3b11d4880c33)"><g class="toyplot-mark-Plot" id="t7bc97c78bdf3417f81127c46ba002386" style="fill:none"><g class="toyplot-Series"><path d="M 41.0 144.82000000000002 L 44.470371420470656 159.79478260869564 L 54.688687269634251 154.50956521739133 L 55.170683300255178 152.74782608695654 L 56.423872979869572 148.3434782608696 L 58.544655514601644 158.91391304347826 L 58.544655514601644 158.91391304347826 L 59.02665154522257 147.46260869565219 L 59.02665154522257 152.74782608695654 L 61.43663169832719 154.50956521739133 L 61.43663169832719 143.05826086956523 L 62.304224553444854 152.74782608695654 L 62.400623759569037 165.08000000000001 L 62.497022965693219 148.3434782608696 L 63.36461582081089 150.98608695652177 L 63.846611851431817 146.58173913043481 L 65.485398355542955 162.43739130434784 L 66.256592004536429 149.22434782608698 L 70.112560249503829 135.13043478260872 L 71.076552310745683 143.05826086956523 L 72.233342784235887 143.93913043478261 L 72.233342784235887 143.93913043478261 L 72.522540402608442 136.89217391304348 L 73.004536433229376 143.93913043478261 L 73.486532463850295 146.58173913043481 L 73.486532463850295 165.08000000000001 L 73.968528494471229 143.93913043478261 L 74.739722143464704 146.58173913043481 L 74.932520555713069 146.58173913043481 L 74.932520555713069 146.58173913043481 L 75.221718174085623 152.74782608695654 L 75.414516586334003 145.7008695652174 L 75.896512616954908 148.3434782608696 L 75.896512616954908 148.3434782608696 L 76.378508647575842 140.41565217391309 L 76.860504678196776 163.31826086956522 L 76.860504678196776 146.58173913043481 L 76.860504678196776 159.79478260869564 L 76.860504678196776 145.7008695652174 L 77.342500708817681 143.05826086956523 L 77.342500708817681 143.93913043478261 L 77.824496739438615 146.58173913043481 L 78.306492770059549 146.58173913043481 L 78.595690388432089 151.86695652173916 L 80.138077686419052 148.3434782608696 L 80.234476892543228 148.3434782608696 L 80.716472923164162 145.7008695652174 L 81.680464984406001 159.79478260869564 L 82.644457045647854 148.3434782608696 L 82.644457045647854 145.7008695652174 L 83.126453076268788 150.98608695652177 L 83.222852282392978 150.10521739130439 L 84.572441168131547 138.65391304347827 L 84.572441168131547 146.58173913043481 L 85.054437198752481 143.93913043478261 L 85.440034023249211 143.93913043478261 L 85.536433229373415 132.48782608695652 L 86.500425290615254 163.31826086956522 L 87.946413382478028 128.08347826086958 L 88.717607031471516 139.53478260869568 L 88.910405443719867 148.3434782608696 L 88.910405443719867 148.3434782608696 L 89.874397504961721 143.93913043478261 L 90.163595123334289 126.32173913043481 L 90.259994329458465 126.32173913043481 L 90.35639353558264 143.93913043478261 L 90.35639353558264 150.10521739130439 L 90.35639353558264 139.53478260869568 L 90.452792741706844 135.13043478260872 L 90.838389566203574 128.08347826086958 L 90.838389566203574 159.79478260869564 L 90.838389566203574 128.08347826086958 L 90.838389566203574 144.82000000000002 L 91.320385596824494 145.7008695652174 L 92.187978451942143 138.65391304347827 L 92.284377658066347 146.58173913043481 L 92.766373688687281 143.93913043478261 L 93.248369719308187 135.13043478260872 L 93.248369719308187 145.7008695652174 L 93.248369719308187 139.53478260869568 L 93.537567337680755 139.53478260869568 L 93.730365749929121 128.08347826086958 L 94.115962574425865 135.13043478260872 L 94.115962574425865 152.74782608695654 L 94.790757017295164 139.53478260869568 L 96.429543521406288 136.89217391304348 L 96.525942727530492 144.82000000000002 L 96.622341933654667 136.89217391304348 L 96.622341933654667 140.41565217391309 L 97.586333994896506 143.93913043478261 L 97.779132407144886 132.48782608695652 L 98.06833002551744 139.53478260869568 L 98.55032605613836 139.53478260869568 L 99.03232208675928 150.10521739130439 L 99.417918911256038 132.48782608695652 L 99.514318117380199 129.84521739130435 L 99.514318117380199 134.24956521739134 L 99.803515735752768 143.05826086956523 L 100.09271335412532 129.84521739130435 L 100.28551176637369 121.91739130434783 L 100.47831017862205 139.53478260869568 L 100.8639070031188 106.06173913043479 L 101.92429827048483 143.93913043478261 L 102.02069747660902 139.53478260869568 L 102.79189112560249 158.03304347826088 L 102.88829033172668 136.0113043478261 L 103.75588318684436 126.32173913043481 L 103.85228239296852 139.53478260869568 L 103.85228239296852 139.53478260869568 L 103.85228239296852 126.32173913043481 L 105.10547207258293 121.91739130434783 L 105.20187127870712 128.08347826086958 L 106.06946413382479 124.56000000000002 L 106.26226254607315 142.17739130434785 L 106.74425857669408 131.60695652173914 L 107.22625460731498 136.89217391304348 L 107.22625460731498 120.15565217391305 L 107.22625460731498 121.03652173913044 L 108.19024666855684 130.72608695652175 L 110.11823079104053 120.15565217391305 L 110.60022682166147 163.31826086956522 L 112.04621491352424 139.53478260869568 L 113.97419903600795 131.60695652173914 L 114.16699744825632 121.91739130434783 L 114.45619506662885 121.91739130434783 L 114.84179189112561 122.79826086956521 L 114.93819109724978 148.3434782608696 L 115.42018712787072 131.60695652173914 L 115.99858236461581 123.67913043478262 L 116.38417918911256 129.84521739130435 L 116.38417918911256 128.08347826086958 L 116.96257442585767 142.17739130434785 L 117.34817125035441 120.15565217391305 L 117.63736886872697 142.17739130434785 L 117.63736886872697 126.32173913043481 L 118.79415934221718 117.5130434782609 L 119.75815140345902 126.32173913043481 L 120.14374822795577 124.56000000000002 L 121.78253473206692 135.13043478260872 L 123.03572441168131 129.84521739130435 L 123.80691806067479 111.34695652173916 L 125.44570456478594 120.15565217391305 L 125.54210377091013 131.60695652173914 L 126.50609583215197 128.08347826086958 L 127.08449106889708 120.15565217391305 L 127.56648709951801 138.65391304347827 L 127.95208392401473 121.91739130434783 L 128.91607598525658 131.60695652173914 L 130.55486248936771 139.53478260869568 L 130.55486248936771 139.53478260869568 L 130.84406010774029 120.15565217391305 L 131.90445137510633 126.32173913043481 L 132.29004819960306 121.91739130434783 L 132.77204423022397 142.17739130434785 L 133.44683867309328 124.56000000000002 L 133.73603629146584 130.72608695652175 L 134.41083073433512 125.44086956521743 L 134.70002835270768 124.56000000000002 L 134.89282676495606 130.72608695652175 L 135.37482279557699 136.89217391304348 L 135.66402041394952 104.30000000000001 L 136.14601644457045 108.70434782608697 L 136.62801247519138 128.08347826086958 L 137.59200453643322 117.5130434782609 L 138.07400056705416 124.56000000000002 L 138.55599659767506 136.0113043478261 L 139.42358945279273 117.5130434782609 L 139.51998865891693 140.41565217391309 L 139.51998865891693 131.60695652173914 L 139.90558548341366 132.48782608695652 L 140.00198468953786 128.08347826086958 L 140.77317833853132 126.32173913043481 L 141.92996881202157 108.70434782608697 L 142.41196484264248 121.03652173913044 L 142.89396087326338 135.13043478260872 L 142.89396087326338 126.32173913043481 L 142.99036007938759 104.30000000000001 L 143.08675928551179 128.96434782608696 L 143.66515452225687 126.32173913043481 L 145.20754182024382 121.91739130434783 L 145.78593705698893 104.30000000000001 L 145.97873546923734 121.03652173913044 L 146.84632832435497 126.32173913043481 L 147.71392117947264 108.70434782608697 L 147.71392117947264 128.08347826086958 L 147.71392117947264 133.36869565217393 L 148.19591721009357 108.70434782608697 L 149.15990927133544 126.32173913043481 L 149.64190530195634 128.08347826086958 L 150.12390133257728 113.10869565217391 L 151.08789339381912 127.2026086956522 L 152.91947831017862 120.15565217391305 L 154.36546640204139 117.5130434782609 L 154.46186560816557 129.84521739130435 L 154.9438616387865 104.30000000000001 L 155.42585766940743 113.10869565217391 L 156.10065211227672 98.133913043478259 L 156.87184576127021 120.15565217391305 L 158.31783385313298 114.87043478260868 L 158.60703147150554 121.91739130434783 L 158.79982988375392 106.94260869565217 L 160.72781400623759 130.72608695652175 L 161.69180606747946 124.56000000000002 L 161.98100368585202 106.94260869565217 L 162.17380209810034 128.08347826086958 L 164.10178622058407 128.08347826086958 L 165.06577828182591 103.41913043478263 L 165.16217748795009 117.5130434782609 L 165.45137510632264 121.91739130434783 L 166.02977034306775 89.325217391304349 L 166.41536716756448 117.5130434782609 L 167.95775446555146 110.46608695652176 L 167.95775446555146 99.895652173913049 L 168.24695208392401 106.94260869565217 L 169.40374255741423 108.70434782608697 L 169.40374255741423 117.5130434782609 L 169.40374255741423 119.27478260869567 L 169.88573858803514 146.58173913043481 L 169.88573858803514 126.32173913043481 L 170.56053303090442 128.08347826086958 L 171.04252906152539 108.70434782608697 L 171.33172667989794 130.72608695652175 L 172.68131556563651 128.96434782608696 L 173.16331159625744 120.15565217391305 L 173.74170683300255 130.72608695652175 L 174.99489651261695 126.32173913043481 L 175.86248936773461 134.24956521739134 L 176.15168698610717 130.72608695652175 L 176.73008222285227 128.08347826086958 L 178.4652679330876 108.70434782608697 L 180.48965126169549 128.08347826086958 L 181.45364332293735 130.72608695652175 L 182.89963141480013 126.32173913043481 L 182.99603062092427 7.404347826086954 L 184.53841791891125 121.91739130434783 L 186.37000283527075 113.10869565217391 L 188.10518854550611 128.08347826086958 L 188.20158775163026 95.491304347826116 L 189.16557981287212 115.75130434782609 L 189.64757584349306 121.91739130434783 L 189.93677346186561 142.17739130434785 L 190.12957187411399 138.65391304347827 L 190.99716472923163 91.967826086956535 L 193.02154805783951 143.05826086956523 L 193.31074567621209 121.91739130434783 L 194.46753614970228 83.159130434782625 L 194.94953218032322 126.32173913043481 L 195.04593138644739 126.32173913043481 L 196.00992344768926 108.70434782608697 L 196.8775163028069 135.13043478260872 L 197.16671392117945 117.5130434782609 L 198.3235043946697 104.30000000000001 L 198.8055004252906 146.58173913043481 L 200.15508931102923 121.91739130434783 L 200.2514885171534 126.32173913043481 L 200.73348454777431 128.08347826086958 L 201.5046781967678 117.5130434782609 L 201.89027502126453 117.5130434782609 L 202.46867025800964 117.5130434782609 L 203.81825914374821 128.08347826086958 L 206.42103770910123 117.5130434782609 L 207.09583215197051 117.5130434782609 L 208.73461865608164 113.10869565217391 L 209.40941309895095 108.70434782608697 L 209.89140912957188 108.70434782608697 L 211.33739722143466 113.10869565217391 L 211.43379642755883 126.32173913043481 L 213.16898213779416 73.469565217391306 L 214.2293734051602 99.895652173913049 L 214.2293734051602 88.444347826086968 L 214.71136943578114 108.70434782608697 L 215.19336546640204 126.32173913043481 L 215.675361497023 77.873913043478268 L 215.675361497023 113.10869565217391 L 216.15735752764391 117.5130434782609 L 216.35015593989226 142.17739130434785 L 216.44655514601646 73.469565217391306 L 216.73575276438902 73.469565217391306 L 217.02495038276157 113.10869565217391 L 217.60334561950668 60.256521739130449 L 217.98894244400338 82.278260869565216 L 218.95293450524525 113.10869565217391 L 219.53132974199039 130.72608695652175 L 223.29089878083357 91.086956521739154 L 224.83328607882052 108.70434782608697 L 225.31528210944145 119.27478260869567 L 225.79727814006239 137.77304347826086 L 226.27927417068329 113.10869565217391 L 228.97845194216046 55.852173913043494 L 229.65324638502977 83.159130434782625 L 230.0388432095265 136.89217391304348 L 233.02721859937625 95.491304347826116 L 233.41281542387298 64.660869565217396 L 233.79841224836974 113.10869565217391 L 234.473206691239 108.70434782608697 L 235.43719875248087 117.5130434782609 L 235.62999716472925 108.70434782608697 L 236.88318684434367 108.70434782608697 L 237.46158208108875 117.5130434782609 L 238.71477176070317 47.043478260869563 L 239.4859654096966 73.469565217391306 L 239.4859654096966 73.469565217391306 L 241.51034873830451 60.256521739130449 L 244.59512333427841 113.10869565217391 L 244.59512333427841 91.967826086956535 L 245.07711936489935 108.70434782608697 L 245.55911539552028 82.278260869565216 L 247.48709951800396 73.469565217391306 L 248.0654947547491 73.469565217391306 L 249.60788205273602 73.469565217391306 L 249.99347887723277 117.5130434782609 L 250.37907570172953 121.91739130434783 L 253.75304791607596 99.895652173913049 L 253.84944712220016 51.447826086956518 L 254.71703997731782 86.682608695652178 L 255.68103203855966 91.086956521739154 L 256.64502409980156 38.234782608695653 L 258.57300822228524 91.086956521739154 L 259.53700028352705 77.873913043478268 L 260.69379075701727 73.469565217391306 L 261.17578678763823 113.10869565217391 L 261.46498440601073 95.491304347826116 L 262.13977884888004 108.70434782608697 L 265.3209526509782 73.469565217391306 L 265.3209526509782 73.469565217391306 L 266.76694074284092 84.040000000000006 L 267.44173518571023 99.895652173913049 L 269.94811454493902 77.873913043478268 L 275.15367167564506 84.920869565217401 L 276.31046214913528 80.51652173913044 L 276.40686135525937 77.873913043478268 L 276.88885738588039 108.70434782608697 L 278.52764388999151 73.469565217391306 L 278.81684150836406 82.278260869565216 L 279.00963992061241 77.873913043478268 L 280.35922880635098 73.469565217391306 L 280.55202721859939 91.086956521739154 L 280.7448256308478 51.447826086956518 L 283.54040260844909 70.826956521739135 L 284.11879784519419 73.469565217391306 L 284.60079387581516 77.873913043478268 L 284.6971930819393 82.278260869565216 L 285.95038276155373 70.826956521739135 L 287.01077402891974 55.852173913043494 L 289.42075418202438 73.469565217391306 L 291.25233909838386 60.256521739130449 L 291.83073433512897 71.707826086956544 L 291.83073433512897 82.278260869565216 L 292.31273036574993 47.043478260869563 L 293.95151686986111 73.469565217391306 L 295.87950099234479 73.469565217391306 L 297.51828749645591 60.256521739130449 L 297.90388432095261 3.0 L 299.44627161893965 82.278260869565216 L 299.54267082506379 91.086956521739154 L 301.18145732917492 16.213043478260861 L 302.43464700878934 38.234782608695653 L 303.39863907003121 74.350434782608701 L 303.97703430677632 31.18782608695652 L 305.23022398639068 11.808695652173908 L 305.80861922313579 69.065217391304358 L 306.09781684150835 66.422608695652173 L 307.35100652112277 29.426086956521747 L 307.73660334561953 47.043478260869563 L 307.92940175786788 20.617391304347841 L 308.21859937624038 51.447826086956518 L 311.78537000283529 38.234782608695653 L 312.07456762120785 7.404347826086954 L 313.52055571307062 77.873913043478268 L 315.06294301105754 64.660869565217396 L 315.15934221718175 73.469565217391306 L 315.834136660051 73.469565217391306 L 315.834136660051 51.447826086956518 L 319.11170966827331 73.469565217391306 L 319.20810887439751 47.043478260869563 L 319.49730649277006 69.065217391304358 L 330.39041678480294 16.213043478260861 L 332.12560249503827 22.37913043478261 L 332.60759852565917 82.278260869565216 L 334.1499858236462 55.852173913043494 L 334.43918344201876 75.231304347826111 L 335.49957470938477 55.852173913043494 L 338.48795009923447 73.469565217391306 L 341.66912390133263 35.592173913043474 L 341.95832151970518 16.213043478260861 L 343.01871278707119 55.852173913043494 L 358.44258576694074 58.494782608695651 L 362.78055004252906 7.404347826086954 L 362.87694924865326 31.18782608695652 L 363.16614686702582 47.043478260869563 L 367.21491352424152 73.469565217391306 L 381.0 51.447826086956518" style="stroke:rgb(40%,76.1%,64.7%);stroke-opacity:1.0;stroke-width:2.0" /></g></g></g><g class="toyplot-coordinates-Axis" id="t056fb0fb8f6c43999c8f33949c9f1ccd" transform="translate(41.0,205.6)translate(0,10.0)"><line style="" x1="0" x2="340.0" y1="0" y2="0" /><g><text style="font-weight:normal;stroke:none;text-anchor:middle" transform="translate(37.30649277005954,6)translate(0,7.5)"><tspan style="font-size:10.0px">2000</tspan></text><text style="font-weight:normal;stroke:none;text-anchor:middle" transform="translate(133.7056988942444,6)translate(0,7.5)"><tspan style="font-size:10.0px">3000</tspan></text><text style="font-weight:normal;stroke:none;text-anchor:middle" transform="translate(230.10490501842926,6)translate(0,7.5)"><tspan style="font-size:10.0px">4000</tspan></text><text style="font-weight:normal;stroke:none;text-anchor:middle" transform="translate(326.50411114261414,6)translate(0,7.5)"><tspan style="font-size:10.0px">5000</tspan></text></g><text style="font-weight:bold;stroke:none;text-anchor:middle" transform="translate(170.0,22)translate(0,9.0)"><tspan style="font-size:12.0px">Weight (lb)</tspan></text><g class="toyplot-coordinates-Axis-coordinates" style="visibility:hidden" transform=""><line style="stroke:rgb(43.9%,50.2%,56.5%);stroke-opacity:1.0;stroke-width:1.0" x1="0" x2="0" y1="-3.0" y2="4.5" /><text style="alignment-baseline:alphabetic;fill:rgb(43.9%,50.2%,56.5%);fill-opacity:1.0;font-size:10px;font-weight:normal;stroke:none;text-anchor:middle" x="0" y="-6" /></g></g><g class="toyplot-coordinates-Axis" id="t94afa20c174d4e279eb14b8588c89393" transform="translate(41.0,205.6)rotate(-90.0)translate(0,-10.0)"><line style="" x1="40.52000000000001" x2="202.60000000000002" y1="0" y2="0" /><g><text style="font-weight:normal;stroke:none;text-anchor:middle" transform="translate(0.0,-6)"><tspan style="font-size:10.0px">0</tspan></text><text style="font-weight:normal;stroke:none;text-anchor:middle" transform="translate(88.08695652173914,-6)"><tspan style="font-size:10.0px">100</tspan></text><text style="font-weight:normal;stroke:none;text-anchor:middle" transform="translate(176.17391304347828,-6)"><tspan style="font-size:10.0px">200</tspan></text></g><text style="font-weight:bold;stroke:none;text-anchor:middle" transform="translate(101.30000000000001,-22)"><tspan style="font-size:12.0px">Horsepower</tspan></text><g class="toyplot-coordinates-Axis-coordinates" style="visibility:hidden" transform=""><line style="stroke:rgb(43.9%,50.2%,56.5%);stroke-opacity:1.0;stroke-width:1.0" x1="0" x2="0" y1="3.0" y2="-4.5" /><text style="alignment-baseline:hanging;fill:rgb(43.9%,50.2%,56.5%);fill-opacity:1.0;font-size:10px;font-weight:normal;stroke:none;text-anchor:middle" x="0" y="6" /></g></g></g></svg>